<?xml version="1.0" encoding="UTF-8"?>
<!-- Created with Inkscape (http://www.inkscape.org/) -->
<svg width="244.3" height="101.45" version="1.1" viewBox="0 0 244.3 101.45" xmlns="http://www.w3.org/2000/svg" xmlns:cc="http://creativecommons.org/ns#" xmlns:dc="http://purl.org/dc/elements/1.1/" xmlns:rdf="http://www.w3.org/1999/02/22-rdf-syntax-ns#" xmlns:xlink="http://www.w3.org/1999/xlink">
 <defs>
  <filter id="filter12575" x="-.12" y="-.08" width="1.24" height="1.16" color-interpolation-filters="sRGB">
   <feGaussianBlur stdDeviation="1.7"/>
  </filter>
  <clipPath id="clipPath920">
   <path d="m37.944 28c-0.52322 0-0.94444 0.43743-0.94444 0.98077v47.077h0.0037a1.8889 1.9615 0 0 0 1.2396 1.8428s3.479 1.0995 15.757 1.0995c12.278 0 15.757-1.0995 15.757-1.0995a1.8889 1.9615 0 0 0 1.2396-1.8428h0.003678v-47.077c0-0.54334-0.42122-0.98077-0.94444-0.98077z" fill="#fdd827"/>
  </clipPath>
  <radialGradient id="radialGradient1562" cx="18" cy="395.27" r="42" gradientTransform="matrix(1.5476 0 0 1.5714 13.143 -579.13)" gradientUnits="userSpaceOnUse">
   <stop stop-color="#fff" stop-opacity=".1" offset="0"/>
   <stop stop-color="#fff" stop-opacity="0" offset="1"/>
  </radialGradient>
 </defs>
 <metadata>
  <rdf:RDF>
   <cc:Work rdf:about="">
    <dc:format>image/svg+xml</dc:format>
    <dc:type rdf:resource="http://purl.org/dc/dcmitype/StillImage"/>
    <dc:title/>
   </cc:Work>
  </rdf:RDF>
 </metadata>
 <g transform="translate(-14.92 -380.9)">
  <g>
   <path d="m39.944 407.27c-0.52322 0-0.94444 0.43743-0.94444 0.98077v47.077h0.0037a1.8889 1.9615 0 0 0 1.2396 1.8428s3.479 1.0995 15.757 1.0995c12.278 0 15.757-1.0995 15.757-1.0995a1.8889 1.9615 0 0 0 1.2396-1.8428h0.003678v-47.077c0-0.54334-0.42122-0.98077-0.94444-0.98077z" fill="#020202" filter="url(#filter12575)" opacity=".2"/>
   <path d="m37.944 405.27c-0.52322 0-0.94444 0.43743-0.94444 0.98077v47.077h0.0037a1.8889 1.9615 0 0 0 1.2396 1.8428s3.479 1.0995 15.757 1.0995c12.278 0 15.757-1.0995 15.757-1.0995a1.8889 1.9615 0 0 0 1.2396-1.8428h0.003678v-47.077c0-0.54334-0.42122-0.98077-0.94444-0.98077z" fill="#fdd827"/>
   <g fill="#373737">
    <path d="m44.334 436.27c-0.554 0-1 0.446-1 1v2.334h-2.334c-0.554 0-1 0.446-1 1v1.332c0 0.554 0.446 1 1 1h2.334v2.334c0 0.554 0.446 1 1 1h1.332c0.554 0 1-0.446 1-1v-2.334h2.334c0.554 0 1-0.446 1-1v-1.332c0-0.554-0.446-1-1-1h-2.334v-2.334c0-0.554-0.446-1-1-1z"/>
    <circle cx="66" cy="439.27" r="2"/>
    <circle cx="60" cy="443.27" r="2"/>
    <rect x="39" y="407.27" width="30" height="27" ry="1"/>
   </g>
   <rect x="42.333" y="410.27" width="23.333" height="21" ry="1" fill="#c0c0c0"/>
   <rect x="50" y="451.27" width="3" height="1" ry=".5" fill="#373737"/>
   <rect x="55" y="451.27" width="3" height="1" ry=".5" fill="#373737"/>
   <path transform="translate(0 377.27)" d="m38 28c-0.554 0-1 0.446-1 1v1c0-0.554 0.446-1 1-1h32c0.554 0 1 0.446 1 1v-1c0-0.554-0.446-1-1-1z" fill="#fff" opacity=".2"/>
   <path transform="translate(0 377.27)" d="m37 75.059v1h0.0039a1.8889 1.9615 0 0 0 1.2402 1.8418c6e-6 0 3.4781 1.0996 15.756 1.0996 12.278 0 15.756-1.0996 15.756-1.0996a1.8889 1.9615 0 0 0 1.2402-1.8418h0.003906v-1h-0.0039a1.8889 1.9615 0 0 1-1.2402 1.8418c-6e-6 0-3.4781 1.0996-15.756 1.0996-12.278 0-15.756-1.0996-15.756-1.0996a1.8889 1.9615 0 0 1-1.2402-1.8418z" opacity=".2"/>
   <path transform="translate(0 377.27)" d="m44.334 59c-0.554 0-1 0.446-1 1v0.5c0-0.554 0.446-1 1-1h1.332c0.554 0 1 0.446 1 1v-0.5c0-0.554-0.446-1-1-1zm-3.334 3.334c-0.554 0-1 0.446-1 1v0.5c0-0.554 0.446-1 1-1h2.334v-0.5zm5.666 0v0.5h2.334c0.554 0 1 0.446 1 1v-0.5c0-0.554-0.446-1-1-1z" fill="#f4f4f4" opacity=".2"/>
   <path transform="translate(0 377.27)" d="m40 64.166v0.5c0 0.554 0.446 1 1 1h2.334v-0.5h-2.334c-0.554 0-1-0.446-1-1zm10 0c0 0.554-0.446 1-1 1h-2.334v0.5h2.334c0.554 0 1-0.446 1-1zm-6.666 3.334v0.5c0 0.554 0.446 1 1 1h1.332c0.554 0 1-0.446 1-1v-0.5c0 0.554-0.446 1-1 1h-1.332c-0.554 0-1-0.446-1-1z" fill="#202020" opacity=".2"/>
   <path transform="translate(0 377.27)" d="m 60,64 a 2,2 0 0 0 -2,2 2,2 0 0 0 0.01758,0.244141 A 2,2 0 0 1 60,64.5 2,2 0 0 1 61.982422,66.255859 2,2 0 0 0 62,66 2,2 0 0 0 60,64 Z" fill="#e9e9e9" opacity=".2"/>
   <path transform="translate(0 377.27)" d="m58.018 65.744a2 2 0 0 0-0.017578 0.25586 2 2 0 0 0 2 2 2 2 0 0 0 2-2 2 2 0 0 0-0.017578-0.24414 2 2 0 0 1-1.9824 1.7441 2 2 0 0 1-1.9824-1.7559z" opacity=".2"/>
   <path d="m66 437.27a2 2 0 0 0-2 2 2 2 0 0 0 0.01758 0.24414 2 2 0 0 1 1.9824-1.7441 2 2 0 0 1 1.9824 1.7559 2 2 0 0 0 0.017578-0.25586 2 2 0 0 0-2-2z" fill="#e9e9e9" opacity=".2"/>
   <path d="m64.018 439.01a2 2 0 0 0-0.017578 0.25586 2 2 0 0 0 2 2 2 2 0 0 0 2-2 2 2 0 0 0-0.01758-0.24414 2 2 0 0 1-1.9824 1.7441 2 2 0 0 1-1.9824-1.7559z" opacity=".2"/>
   <path transform="translate(0 377.27)" d="m55.5 74c-0.277 0-0.5 0.223-0.5 0.5 0 0.03529 0.01264 0.06642 0.01953 0.09961 0.04756-0.22682 0.2391-0.40039 0.48047-0.40039h2c0.24137 0 0.43291 0.17357 0.48047 0.40039 0.006891-0.033189 0.019532-0.064319 0.019532-0.09961 0-0.277-0.223-0.5-0.5-0.5z" fill="#fff" opacity=".2"/>
   <path transform="translate(0 377.27)" d="m55.02 74.4c-0.00689 0.033188-0.019531 0.064318-0.019531 0.099609 0 0.277 0.223 0.5 0.5 0.5h2c0.277 0 0.5-0.223 0.5-0.5 0-0.03529-0.01264-0.06642-0.01953-0.09961-0.04756 0.22682-0.2391 0.40039-0.48047 0.40039h-2c-0.24137 0-0.43291-0.17357-0.48047-0.40039z" fill="#040404" opacity=".2"/>
   <path d="m50.5 451.27c-0.277 0-0.5 0.223-0.5 0.5 0 0.0353 0.01264 0.0664 0.01953 0.0996 0.04756-0.22682 0.2391-0.40039 0.48047-0.40039h2c0.24137 0 0.43291 0.17357 0.48047 0.40039 0.0069-0.0332 0.01953-0.0643 0.01953-0.0996 0-0.277-0.223-0.5-0.5-0.5z" fill="#fff" opacity=".2"/>
   <path d="m50.02 451.67c-0.0069 0.0332-0.01953 0.0643-0.01953 0.0996 0 0.277 0.223 0.5 0.5 0.5h2c0.277 0 0.5-0.223 0.5-0.5 0-0.0353-0.01264-0.0664-0.01953-0.0996-0.04756 0.22682-0.2391 0.40039-0.48047 0.40039h-2c-0.24137 0-0.43291-0.17357-0.48047-0.40039z" fill="#040404" opacity=".2"/>
   <ellipse transform="translate(0 377.27)" cx="41" cy="42" rx="65" ry="66" clip-path="url(#clipPath920)" fill="url(#radialGradient1562)"/>
  </g>
 </g>
 <g transform="translate(-9.1195e-8 2.2883)" stroke="#000" stroke-opacity=".19608" stroke-width="5.533">
  <path d="m124.92 20.516c-3.6494 0.24853-10.312-0.14705-10.254 5.1094 2.3653 13.032 3.1685 26.735 1.5352 39.895-0.6614 4.7735 1.2526 7.1449 4.7656 7.3809 10.632 2.791 23.914-7.0022 20.627-18.547-1.2923-4.3448-4.4941-8.2116-8.375-10.365 7.6859-4.8288 7.7683-17.849-0.85546-21.693-2.2918-1.1624-4.8423-2.0036-7.4434-1.7793zm1.1973 7.6035c4.8976 0.03956 7.1064 6.4417 3.0898 9.3086-1.4405 1.1895-3.4062 2.6044-5.0508 2.8926 0.0822-3.8575-1.2679-8.6399-0.78515-11.953 0.89199-0.12129 1.7862-0.29178 2.7461-0.24805zm-1.3301 21.049c6.3121 0.02009 13.119 8.1652 7.5039 13.451-2.2067 2.0082-5.5144 3.494-8.3926 2.9609 0.84564-5.3932 0.70497-11.268 0.88867-16.412z" fill="#ae46de" style="paint-order:stroke fill markers"/>
  <path d="m170.38 24.848c-12.646 0.27243-22.288 12.359-22.824 24.672-0.578 13.282 12.533 24.319 25.559 22.195 3.3076-0.53919 9.2757-1.0997 7.7617-5.793-2.2569-4.9263-8.3074-1.0572-12.287-1.3457-9.2607-0.67123-15.236-10.536-12.686-19.354 2.6298-9.0906 13.228-16.145 21.822-10.934 4.37 2.1084 7.5547-5.1965 3.0332-6.9824-3.2476-1.4757-6.7548-2.7078-10.379-2.459z" fill="#b8ff2c" style="paint-order:stroke fill markers"/>
  <path d="m208.11 24.246c-18.048 0.43687-30.419 22.606-22.242 38.359 4.3988 8.6069 14.561 11.614 23.539 10.906 3.7192-0.29305 9.9666-0.82678 10.623-3.9707 0.61529-4.0579-3.5395-4.3302-6.6504-3.8301-7.48 1.2025-17.813 0.65616-21.277-7.623-4.8295-11.542 5.0805-27.633 18.297-25.975 3.9262 0.97671 7.2043 5.9093 10.377 1.9609 2.873-4.296-3.016-7.28-6.3047-8.5645-2.0006-0.86965-4.1669-1.4199-6.3613-1.2637z" fill="#00ccd2" style="paint-order:stroke fill markers"/>
  <path transform="translate(-14.92,-153.92)" d="m108.84 176.59c-12.71 0.78505-20.94 13.781-22.77 25.555-1.5589 10.031 4.3756 20.634 14.393 22.654 11.481 3.0569 25.647-5.1012 25.77-17.666-0.63657-7.2488-8.8901-9.9399-15.133-8.7442-4.8013-0.55537-5.811 7.1703-0.97461 7.6543 2.7194 0.19941 7.0711-1.4175 8.5039 1.7754-1.7523 12.139-22.254 13.654-24.951 1.2676-1.4702-9.8565 3.8892-22.554 14.402-24.801 6.6686-1.4254 8.5115 4.595 12.453 1.3848 3.6913-7.0083-7.2249-9.1904-11.693-9.0801z" fill="#ff0786" style="paint-order:stroke fill markers"/>
 </g>
</svg>
