<svg height="101.5" viewBox="0 0 244.3 101.5" width="244.3" xmlns="http://www.w3.org/2000/svg" xmlns:xlink="http://www.w3.org/1999/xlink">
	<filter id="a" color-interpolation-filters="sRGB" height="1.2" width="1.2" x="-.1" y="-.1">
		<feGaussianBlur stdDeviation="1.7"/>
	</filter>
	<clipPath id="b">
		<path d="m37.9 28c-.5 0-.9.4-.9 1v47.1a1.9 2 0 0 0 1.2 1.8s3.5 1.1 15.8 1.1 15.8-1.1 15.8-1.1a1.9 2 0 0 0 1.2-1.8v-47.1c0-.5-.4-1-.9-1z"/>
	</clipPath>
	<radialGradient id="c" cx="18" cy="395.3" gradientTransform="matrix(1.5 0 0 1.6 13.1 -579.1)" gradientUnits="userSpaceOnUse" r="42">
		<stop offset="0" stop-color="#fff" stop-opacity=".1"/>
		<stop offset="1" stop-color="#fff" stop-opacity="0"/>
	</radialGradient>
	<g transform="translate(-14.9 -380.9)">
		<path d="m39.9 407.3c-.5 0-.9.4-.9 1v47a1.9 2 0 0 0 1.2 1.9s3.5 1.1 15.8 1.1 15.8-1.1 15.8-1.1a1.9 2 0 0 0 1.2-1.9v-47c0-.6-.4-1-.9-1z" fill="#020202" filter="url(#a)" opacity=".2"/>
		<path d="m37.9 405.3c-.5 0-.9.4-.9 1v47a1.9 2 0 0 0 1.2 1.9s3.5 1.1 15.8 1.1 15.8-1.1 15.8-1.1a1.9 2 0 0 0 1.2-1.9v-47c0-.6-.4-1-.9-1z" fill="#fdd827"/>
		<g fill="#373737">
			<path d="m44.3 436.3c-.5 0-1 .4-1 1v2.3h-2.3c-.6 0-1 .5-1 1v1.3c0 .6.4 1 1 1h2.3v2.4c0 .5.5 1 1 1h1.4c.5 0 1-.5 1-1v-2.4h2.3c.6 0 1-.4 1-1v-1.3c0-.5-.4-1-1-1h-2.3v-2.3c0-.6-.5-1-1-1z"/>
			<circle cx="66" cy="439.3" r="2"/>
			<circle cx="60" cy="443.3" r="2"/>
			<rect height="27" ry="1" width="30" x="39" y="407.3"/>
		</g>
		<rect fill="#c0c0c0" height="21" ry="1" width="23.3" x="42.3" y="410.3"/>
		<rect fill="#373737" height="1" ry=".5" width="3" x="50" y="451.3"/>
		<rect fill="#373737" height="1" ry=".5" width="3" x="55" y="451.3"/>
		<path d="m38 28c-.6 0-1 .4-1 1v1c0-.6.4-1 1-1h32c.6 0 1 .4 1 1v-1c0-.6-.4-1-1-1z" fill="#fff" opacity=".2" transform="translate(0 377.3)"/>
		<path d="m37 75.1v1a1.9 2 0 0 0 1.2 1.8s3.5 1.1 15.8 1.1 15.8-1.1 15.8-1.1a1.9 2 0 0 0 1.2-1.8v-1a1.9 2 0 0 1 -1.2 1.8s-3.5 1.1-15.8 1.1-15.8-1.1-15.8-1.1a1.9 2 0 0 1 -1.2-1.8z" opacity=".2" transform="translate(0 377.3)"/>
		<path d="m44.3 436.3c-.5 0-1 .4-1 1v.5c0-.6.5-1 1-1h1.4c.5 0 1 .4 1 1v-.5c0-.6-.5-1-1-1zm-3.3 3.3c-.6 0-1 .5-1 1v.5c0-.5.4-1 1-1h2.3v-.5zm5.7 0v.5h2.3c.6 0 1 .5 1 1v-.5c0-.5-.4-1-1-1z" fill="#f4f4f4" opacity=".2"/>
		<path d="m40 441.4v.5c0 .6.4 1 1 1h2.3v-.5h-2.3c-.6 0-1-.4-1-1zm10 0c0 .6-.4 1-1 1h-2.3v.5h2.3c.6 0 1-.4 1-1zm-6.7 3.4v.5c0 .5.5 1 1 1h1.4c.5 0 1-.5 1-1v-.5c0 .5-.5 1-1 1h-1.4c-.5 0-1-.5-1-1z" fill="#202020" opacity=".2"/>
		<path d="m60 441.3a2 2 0 0 0 -2 2 2 2 0 0 0 0 .2 2 2 0 0 1 2-1.7 2 2 0 0 1 2 1.7 2 2 0 0 0 0-.2 2 2 0 0 0 -2-2z" fill="#e9e9e9" opacity=".2"/>
		<path d="m58 443a2 2 0 0 0 0 .3 2 2 0 0 0 2 2 2 2 0 0 0 2-2 2 2 0 0 0 0-.3 2 2 0 0 1 -2 1.8 2 2 0 0 1 -2-1.8z" opacity=".2"/>
		<path d="m66 437.3a2 2 0 0 0 -2 2 2 2 0 0 0 0 .2 2 2 0 0 1 2-1.7 2 2 0 0 1 2 1.7 2 2 0 0 0 0-.2 2 2 0 0 0 -2-2z" fill="#e9e9e9" opacity=".2"/>
		<path d="m64 439a2 2 0 0 0 0 .3 2 2 0 0 0 2 2 2 2 0 0 0 2-2 2 2 0 0 0 0-.3 2 2 0 0 1 -2 1.8 2 2 0 0 1 -2-1.8z" opacity=".2"/>
		<path d="m55.5 451.3c-.3 0-.5.2-.5.5v.1c.1-.3.3-.4.5-.4h2c.2 0 .4.1.5.4 0-.1 0-.1 0-.1 0-.3-.2-.5-.5-.5z" fill="#fff" opacity=".2"/>
		<path d="m55 451.7v.1c0 .2.2.5.5.5h2c.3 0 .5-.3.5-.5 0-.1 0-.1 0-.1-.1.2-.3.4-.5.4h-2c-.2 0-.4-.2-.5-.4z" fill="#040404" opacity=".2"/>
		<path d="m50.5 451.3c-.3 0-.5.2-.5.5v.1c.1-.3.3-.4.5-.4h2c.2 0 .4.1.5.4 0-.1 0-.1 0-.1 0-.3-.2-.5-.5-.5z" fill="#fff" opacity=".2"/>
		<path d="m50 451.7v.1c0 .2.2.5.5.5h2c.3 0 .5-.3.5-.5 0-.1 0-.1 0-.1-.1.2-.3.4-.5.4h-2c-.2 0-.4-.2-.5-.4z" fill="#040404" opacity=".2"/>
		<ellipse clip-path="url(#b)" cx="41" cy="42" fill="url(#c)" rx="65" ry="66" transform="translate(0 377.3)"/>
	</g>
	<g stroke="#000" stroke-opacity=".2" stroke-width="5.5" transform="translate(0 2.3)" style="paint-order:stroke fill markers">
		<path d="m114.7 25.6c1.3 13.2 3.2 26.7 1.5 39.9-.6 4.8 1.3 6.6 4.8 7.4 10.7 2.3 23.9-7 20.6-18.5-1.3-4.3-4.5-8.2-8.4-10.4 7.7-4.8 7.5-17.2-.9-21.7-4.7-2.5-18.3-2.7-17.7 3.3zm14.5 11.8c-1.5 1.1-3.4 2.6-5.1 2.9.1-3.9-1.3-8.6-.8-12 7.6-1.8 9.9 5.7 5.8 9.1zm-4.4 11.7c6.3 0 13.1 8.2 7.5 13.5-2.2 2-5.5 3.5-8.4 3 .8-5.6.7-11.4.9-16.4z" fill="#ae46de"/>
		<path d="m170.4 24.8c-12.7.3-22.3 12.4-22.8 24.7-.6 13.3 12.5 24.3 25.5 22.2 3.3-.5 9.6-1.2 7.8-5.8-2-5-8.3-1-12.3-1.3-9.3-.7-15.2-10.6-12.7-19.4 2.6-9.1 13.1-15.9 21.8-10.9 4.3 2.4 7.3-4.8 3.1-7-3.1-1.6-6.5-2.5-10.4-2.5z" fill="#b8ff2c"/>
		<path d="m208.1 24.2c-18 .5-30.4 22.6-22.2 38.4 4.4 8.6 14.5 11.6 23.5 10.9 3.7-.3 10.1-.8 10.6-4 .7-4-3.5-4.3-6.6-3.8-7.5 1.2-17.8.7-21.3-7.6-4.8-11.6 5.1-28 18.3-26 4 .6 7.4 6.1 10.4 2 3-4.2-3.1-7.3-6.3-8.6-2-.8-4.1-1.3-6.4-1.3z" fill="#00ccd2"/>
		<path d="m92 22.7c-12.7.6-21 13.7-22.8 25.5-1.6 10 4.4 20.4 14.3 22.7 11.6 2.7 26.1-5.1 25.8-17.7-.2-7.3-8.5-9.5-15.1-8.7-4.8.6-5.8 7.2-1 7.6 2.7.2 7.1-1.4 8.5 1.8-1.8 12.1-22.6 13.8-24.9 1.3-1.8-9.8 3.9-22.7 14.4-24.9 6.7-1.4 10.1 5.1 12.4 1.4 3.9-6.3-7.6-9.2-11.6-9z" fill="#ff0786"/>
	</g>
</svg>
