<svg width="448" height="160" viewBox="10 10 224 80" xmlns="http://www.w3.org/2000/svg" xmlns:xlink="http://www.w3.org/1999/xlink">
	<clipPath id="a">
		<path d="m38 28c-.5 0-1 .4-1 1v47c0 .8.5 1.6 1.2 1.9 0 0 3.5 1.1 15.8 1.1s15.8-1.1 15.8-1.1c.7-.3 1.2-1.1 1.2-1.9v-47c0-.6-.5-1-1-1z"/>
	</clipPath>
	<filter id="b" color-interpolation-filters="sRGB" height="1.2" width="1.2" x="-.1" y="-.1">
		<feGaussianBlur stdDeviation="1.7"/>
	</filter>
	<radialGradient id="c" cx="18" cy="395" gradientTransform="matrix(1.5 0 0 1.6 13.1 -579.1)" gradientUnits="userSpaceOnUse" r="42">
		<stop offset="0" stop-color="#fff" stop-opacity=".1"/>
		<stop offset="1" stop-color="#fff" stop-opacity="0"/>
	</radialGradient>
	<path d="m25 26c-.5 0-1 .4-1 1v47c0 .8.5 1.6 1.2 1.9 0 0 3.5 1.1 15.8 1.1s15.8-1.1 15.8-1.1c.7-.3 1.2-1.1 1.2-1.9v-47c0-.6-.5-1-1-1z" fill="#020202" filter="url(#b)" opacity=".2"/>
	<path d="m23 24c-.5 0-1 .4-1 1v47c0 .8.5 1.6 1.2 1.9 0 0 3.5 1.1 15.8 1.1s15.8-1.1 15.8-1.1c.7-.3 1.2-1.1 1.2-1.9v-47c0-.6-.5-1-1-1z" fill="#fdd827"/>
	<g fill="#373737">
		<path d="m29.3 55c-.5 0-1 .4-1 1v2.3h-2.3c-.6 0-1 .5-1 1v1.3c0 .6.4 1 1 1h2.3v2.4c0 .5.5 1 1 1h1.4c.5 0 1-.5 1-1v-2.4h2.3c.6 0 1-.4 1-1v-1.3c0-.5-.4-1-1-1h-2.3v-2.3c0-.6-.5-1-1-1z"/>
		<circle cx="51" cy="58" r="2"/>
		<circle cx="45" cy="62" r="2"/>
		<rect height="27" ry="1" width="30" x="24" y="26"/>
		<rect height="1" ry=".5" width="3" x="35" y="70"/>
		<rect height="1" ry=".5" width="3" x="40" y="70"/>
	</g>
	<rect fill="#c0c0c0" height="21" ry="1" width="23" x="27.5" y="29"/>
	<g opacity=".2">
		<path d="m40 70.4v.1c0 .2.2.5.5.5h2c.3 0 .5-.3.5-.5 0-.1 0-.1 0-.1-.1.2-.3.4-.5.4h-2c-.2 0-.4-.2-.5-.4z"/>
		<path d="m35 70.4v.1c0 .2.2.5.5.5h2c.3 0 .5-.3.5-.5 0-.1 0-.1 0-.1-.1.2-.3.4-.5.4h-2c-.2 0-.4-.2-.5-.4z"/>
		<path d="m43 61.7a2 2 0 0 0 0 .3 2 2 0 0 0 2 2 2 2 0 0 0 2-2 2 2 0 0 0 0-.3 2 2 0 0 1 -2 1.8 2 2 0 0 1 -2-1.8z"/>
		<path d="m49 57.7a2 2 0 0 0 0 .3 2 2 0 0 0 2 2 2 2 0 0 0 2-2 2 2 0 0 0 0-.3 2 2 0 0 1 -2 1.8 2 2 0 0 1 -2-1.8z"/>
		<path d="m22 71v1.1c0 .8.5 1.5 1.2 1.8 0 0 3.5 1.1 15.8 1.1s15.8-1.1 15.8-1.1c.7-.3 1.2-1 1.2-1.8v-1.1c0 .8-.5 1.6-1.2 1.9 0 0-3.5 1.1-15.8 1.1s-15.8-1.1-15.8-1.1c-.7-.3-1.2-1.1-1.2-1.9z"/>
		<path d="m25 60.1v.5c0 .6.4 1 1 1h2.3v-.5h-2.3c-.6 0-1-.4-1-1zm10 0c0 .6-.4 1-1 1h-2.3v.5h2.3c.6 0 1-.4 1-1zm-6.7 3.4v.5c0 .5.5 1 1 1h1.4c.5 0 1-.5 1-1v-.5c0 .5-.5 1-1 1h-1.4c-.5 0-1-.5-1-1z"/>
		<g fill="#fff">
			<path d="m29.3 55c-.5 0-1 .4-1 1v.5c0-.6.5-1 1-1h1.4c.5 0 1 .4 1 1v-.5c0-.6-.5-1-1-1zm-3.3 3.3c-.6 0-1 .5-1 1v.5c0-.5.4-1 1-1h2.3v-.5zm5.7 0v.5h2.3c.6 0 1 .5 1 1v-.5c0-.5-.4-1-1-1z"/>
			<path d="m51 56a2 2 0 0 0 -2 2 2 2 0 0 0 0 .2 2 2 0 0 1 2-1.7 2 2 0 0 1 2 1.7 2 2 0 0 0 0-.2 2 2 0 0 0 -2-2z"/>
			<path d="m45 60a2 2 0 0 0 -2 2 2 2 0 0 0 0 .2 2 2 0 0 1 2-1.7 2 2 0 0 1 2 1.7 2 2 0 0 0 0-.2 2 2 0 0 0 -2-2z"/>
			<path d="m22.9 24c-.6 0-.9.4-.9 1v1c0-.6.3-1 .9-1h32c.6 0 1.1.4 1.1 1v-1c0-.6-.5-1-1.1-1z"/>
			<path d="m40.5 70c-.3 0-.5.2-.5.5v.1c.1-.3.3-.4.5-.4h2c.2 0 .4.1.5.4 0-.1 0-.1 0-.1 0-.3-.2-.5-.5-.5z"/>
			<path d="m35.5 70c-.3 0-.5.2-.5.5v.1c.1-.3.3-.4.5-.4h2c.2 0 .4.1.5.4 0-.1 0-.1 0-.1 0-.3-.2-.5-.5-.5z"/>
		</g>
	</g>
	<g stroke="#000" stroke-opacity=".2" stroke-width="5.5" style="paint-order:stroke">
		<path d="m114.6 27.4c1.3 13.2 3.3 26.7 1.6 39.9-.6 4.8 1.3 6.6 4.8 7.4 10.7 2.3 23.9-7 20.6-18.5-1.3-4.3-4.5-8.2-8.4-10.4 7.7-4.8 7.5-17.2-.9-21.7-4.7-2.5-18.3-2.7-17.7 3.2zm9.5 14.7c.1-3.9-1.3-8.6-.8-12 7.6-1.8 10.1 5.7 5.9 9.1-1.5 1.2-3.4 2.6-5.1 2.9zm.7 8.8c6.3 0 13.1 8.2 7.5 13.5-2.2 2-5.5 3.5-8.4 3 .8-5.6.7-11.4.9-16.5z" fill="#ae46de"/>
		<path d="m170.4 26.6c-12.7.3-22.3 12.4-22.8 24.7-.6 13.3 12.5 24.3 25.5 22.2 3.3-.5 9.6-1.2 7.8-5.8-2-5-8.3-1-12.3-1.3-9.3-.7-15.2-10.6-12.7-19.4 2.6-9.1 13.1-15.9 21.8-10.9 4.3 2.4 7.3-4.8 3.1-7-3.1-1.6-6.5-2.5-10.4-2.5z" fill="#b8ff2c"/>
		<path d="m208.1 26c-18 .5-30.4 22.6-22.2 38.4 4.4 8.6 14.5 11.6 23.5 10.9 3.7-.3 10.1-.8 10.6-4 .7-4-3.5-4.3-6.6-3.8-7.5 1.2-17.8.7-21.3-7.6-4.8-11.6 5.1-28 18.3-26 4 .6 7.4 6.1 10.4 2 3-4.2-3.1-7.3-6.3-8.6-2-.8-4.1-1.3-6.4-1.3z" fill="#00ccd2"/>
		<path d="m92 24.5c-12.7.6-21 13.7-22.8 25.5-1.6 10 4.4 20.4 14.3 22.7 11.6 2.7 26.1-5.1 25.8-17.7-.2-7.3-8.5-9.5-15.1-8.7-4.8.6-5.8 7.2-1 7.6 2.7.2 7.1-1.4 8.5 1.8-1.8 12.1-22.6 13.8-24.9 1.3-1.8-9.8 3.9-22.7 14.4-24.9 6.7-1.4 10.1 5.1 12.4 1.4 3.9-6.3-7.6-9.2-11.6-9z" fill="#ff0786"/>
	</g>
	<ellipse clip-path="url(#a)" cx="41" cy="42" fill="url(#c)" rx="65" ry="66" transform="translate(-15 -4)"/>
</svg>
