<svg height="336" viewBox="0 0 640 336" width="640" xmlns="http://www.w3.org/2000/svg" xmlns:xlink="http://www.w3.org/1999/xlink">
	<linearGradient id="a" gradientTransform="matrix(1.1 0 0 1 -14.52 870)" gradientUnits="userSpaceOnUse" spreadMethod="pad" x1="64" x2="496" y1="-522.73" y2="-522.73">
		<stop offset="0" stop-color="#ff794f"/>
		<stop offset=".01851852" stop-color="#ffbe62"/>
		<stop offset=".07175926" stop-color="#fff776"/>
		<stop offset=".25925925" stop-color="#ffff6b"/>
		<stop offset=".27777779" stop-color="#f7ed5e"/>
		<stop offset=".28472221" stop-color="#cae05f"/>
		<stop offset=".28935185" stop-color="#cbfb7e"/>
		<stop offset=".2962963" stop-color="#d1ff99"/>
		<stop offset=".3611111" stop-color="#e2fffa"/>
		<stop offset=".43518519" stop-color="#d7ffff"/>
		<stop offset=".56481481" stop-color="#67f9ff"/>
		<stop offset=".57407409" stop-color="#3bceff"/>
		<stop offset=".71296299" stop-color="#35b3dd"/>
		<stop offset=".7175926" stop-color="#5ac1e5"/>
		<stop offset=".75" stop-color="#a8d7e8"/>
		<stop offset=".78703701" stop-color="#d1d1d4"/>
		<stop offset=".82407409" stop-color="#e4b7ab"/>
		<stop offset=".85185188" stop-color="#e48669"/>
		<stop offset=".8587963" stop-color="#de633c"/>
		<stop offset="1" stop-color="#ff7145"/>
	</linearGradient>
	<clipPath id="b">
		<path d="m56 273.27h276v146h-276z"/>
	</clipPath>
	<g transform="translate(0 -149.27)">
		<path d="m3.33-3.02c.06-.25.3-1.17.98-1.17.05 0 .3 0 .5.13-.28.06-.47.29-.47.54 0 .16.11.34.38.34.22 0 .53-.17.53-.58 0-.52-.58-.66-.92-.66-.58 0-.92.53-1.05.75-.25-.66-.78-.75-1.08-.75-1.03 0-1.61 1.28-1.61 1.53 0 .11.11.11.13.11.08 0 .11-.03.13-.11.34-1.06 1-1.31 1.34-1.31.19 0 .53.09.53.67 0 .31-.17.97-.53 2.38-.16.61-.52 1.03-.95 1.03-.06 0-.28 0-.5-.13.25-.06.47-.27.47-.55 0-.27-.22-.34-.36-.34-.31 0-.55.25-.55.58 0 .45.48.66.92.66.67 0 1.03-.7 1.05-.75.13.36.48.75 1.08.75 1.03 0 1.59-1.28 1.59-1.53 0-.11-.08-.11-.11-.11-.09 0-.11.05-.14.11-.33 1.08-1 1.31-1.31 1.31-.39 0-.55-.31-.55-.66 0-.22.05-.44.16-.88zm0 0" fill="#fff" fill-opacity=".87" transform="matrix(4 0 0 4 583.6 459.22)"/>
		<path d="m3.73-6.05c.08-.36.11-.45.91-.45.23 0 .31 0 .31-.19 0-.13-.11-.13-.14-.13-.3 0-1.03.03-1.33.03s-1.02-.03-1.33-.03c-.06 0-.19 0-.19.2.01.12.09.12.29.12.41 0 .69 0 .69.19 0 .05 0 .08-.03.16l-1.34 5.38c-.09.38-.11.47-.91.47-.23 0-.31 0-.31.2-.01.1.1.1.13.1.3 0 1.02-.03 1.32-.03.29 0 1.03.03 1.33.03.08 0 .2 0 .2-.19 0-.13-.08-.13-.3-.13-.19 0-.23 0-.42-.02-.22-.02-.25-.06-.25-.17 0-.08.02-.16.03-.23zm0 0" fill="#fff" fill-opacity=".87" transform="matrix(4 0 0 4 14.5 202.57)"/>
		<path d="m56 283.27v136h476v-136a136 136 0 0 0 -102.04 46.26 136 136 0 0 0 -101.96-46.26 136 136 0 0 0 -67.96 18.39 136 136 0 0 0 -68.04-18.39 136 136 0 0 0 -67.96 18.39 136 136 0 0 0 -68.04-18.39z" fill="url(#a)"/>
		<path d="m56 283.27a136 136 0 0 1 136 136" fill="none" stroke="#ff7145" stroke-width="4"/>
		<path clip-path="url(#b)" d="m56 419.27a136 136 0 0 1 136-136 136 136 0 0 1 136 136" fill="none" stroke="#c1d650" stroke-width="4"/>
		<path d="m57 214.39h14s-7-12.12-7-12.12-7 12.12-7 12.12z" fill="#fff" fill-opacity=".87" transform="translate(-10 -51.12)"/>
		<path d="m57 214.39h14s-7-12.12-7-12.12-7 12.12-7 12.12z" fill="#fff" fill-opacity=".87" transform="matrix(0 1 -1 0 830.39 357.27)"/>
		<path d="m48-114.73v560h-256" fill="none" stroke="#fff" stroke-linecap="square" stroke-opacity=".87" stroke-width="4" transform="matrix(0 1 -1 0 499.27 373.27)"/>
		<g fill="#fff" fill-opacity=".87">
			<path d="m2.94-6.38c0-.25 0-.27-.23-.27-.63.65-1.51.65-1.82.65v.31c.2 0 .78 0 1.3-.27v5.17c0 .36-.03.47-.92.47h-.31v.32c.34-.03 1.2-.03 1.61-.03.39 0 1.27 0 1.61.03v-.31h-.31c-.91 0-.92-.11-.92-.47zm0 0" transform="matrix(4 0 0 4 27.87 294.03)"/>
			<path d="m4.58-3.19c0-.8-.05-1.59-.39-2.33-.45-.97-1.28-1.13-1.69-1.13-.61 0-1.33.27-1.75 1.19-.31.69-.36 1.47-.36 2.27 0 .75.03 1.64.45 2.41.42.8 1.16 1 1.64 1 .53 0 1.3-.2 1.73-1.16.31-.69.36-1.47.36-2.25zm-2.1 3.19c-.39 0-.98-.25-1.15-1.2-.11-.6-.11-1.52-.11-2.11 0-.64 0-1.3.08-1.83.19-1.19.94-1.28 1.19-1.28.33 0 .98.19 1.17 1.17.11.56.11 1.31.11 1.94 0 .75 0 1.42-.11 2.06-.16.95-.72 1.25-1.18 1.25zm0 0" transform="matrix(4 0 0 4 28.05 434.09)"/>
			<g stroke="#fff" stroke-opacity=".87" transform="matrix(4 0 0 4 -415.57 -75.85)">
				<path d="m3.52-1.27h-.24c-.02.16-.09.56-.19.63-.04.05-.57.05-.68.05h-1.28c.73-.64.98-.84 1.39-1.17.52-.41 1-.84 1-1.5 0-.84-.73-1.36-1.63-1.36-.86 0-1.45.61-1.45 1.25 0 .34.3.39.38.39.16 0 .36-.13.36-.38 0-.13-.05-.38-.41-.38.21-.48.68-.64 1.01-.64.7 0 1.06.55 1.06 1.11 0 .61-.44 1.08-.66 1.33l-1.66 1.67c-.08.07-.08.08-.08.27h2.88zm0 0" stroke="none" transform="translate(149.91 130.84)"/>
				<path d="m0 0h3.97" stroke="#fff" stroke-miterlimit="10" stroke-opacity=".87" stroke-width=".4" transform="matrix(1 0 0 -1 149.91 132.27)"/>
				<path d="m3.73-4.2c.06-.09.06-.11.06-.28h-1.82c-.28 0-.36-.02-.61-.04-.36-.03-.38-.07-.39-.18h-.24l-.25 1.48h.24c.02-.11.09-.56.2-.64.05-.03.63-.03.72-.03h1.52c-.22.28-.58.72-.72.92-.91 1.19-1 2.3-1 2.7 0 .08 0 .41.33.41.34 0 .34-.31.34-.41v-.28c0-1.34.28-1.97.58-2.34zm0 0" stroke="none" transform="translate(149.91 138.2)"/>
			</g>
			<g stroke="#fff" stroke-opacity=".87" transform="matrix(4 0 0 4 -279.57 -75.69)">
				<path d="m3.69-1.14v-.25h-.78v-3.11c0-.14 0-.2-.14-.2-.09 0-.13 0-.19.11l-2.31 3.2v.25h2.06v.56c0 .25 0 .33-.58.33h-.19v.25c.36-.02.8-.03 1.05-.03.27 0 .7.01 1.06.03v-.25h-.19c-.57 0-.57-.08-.57-.33v-.56zm-1.31-2.8v2.55h-1.85zm0 0" stroke="none" transform="translate(149.91 130.84)"/>
				<path d="m0 0h3.97" stroke="#fff" stroke-miterlimit="10" stroke-opacity=".87" stroke-width=".4" transform="matrix(1 0 0 -1 149.91 132.27)"/>
				<path d="m3.73-4.2c.06-.09.06-.11.06-.28h-1.82c-.28 0-.36-.02-.61-.04-.36-.03-.38-.07-.39-.18h-.24l-.25 1.48h.24c.02-.11.09-.56.2-.64.05-.03.63-.03.72-.03h1.52c-.22.28-.58.72-.72.92-.91 1.19-1 2.3-1 2.7 0 .08 0 .41.33.41.34 0 .34-.31.34-.41v-.28c0-1.34.28-1.97.58-2.34zm0 0" stroke="none" transform="translate(149.91 138.2)"/>
			</g>
			<path d="m2.94-6.38c0-.25 0-.27-.23-.27-.63.65-1.51.65-1.82.65v.31c.2 0 .78 0 1.3-.27v5.17c0 .36-.03.47-.92.47h-.31v.32c.34-.03 1.2-.03 1.61-.03.39 0 1.27 0 1.61.03v-.31h-.31c-.91 0-.92-.11-.92-.47zm0 0" transform="matrix(4 0 0 4 521.87 455.41)"/>
		</g>
		<path d="m192 419.27a136 136 0 0 1 136-136 136 136 0 0 1 136 136" fill="none" stroke="#3bceff" stroke-width="4"/>
		<path d="m396 419.27a136 136 0 0 1 136-136" fill="none" stroke="#ff7145" stroke-width="4"/>
	</g>
</svg>
