<?xml version="1.0" encoding="UTF-8" standalone="no"?>
<!-- Created with Inkscape (http://www.inkscape.org/) -->

<svg
   xmlns:ns1="http://www.iki.fi/pav/software/textext/"
   xmlns:dc="http://purl.org/dc/elements/1.1/"
   xmlns:cc="http://creativecommons.org/ns#"
   xmlns:rdf="http://www.w3.org/1999/02/22-rdf-syntax-ns#"
   xmlns:svg="http://www.w3.org/2000/svg"
   xmlns="http://www.w3.org/2000/svg"
   xmlns:xlink="http://www.w3.org/1999/xlink"
   xmlns:sodipodi="http://sodipodi.sourceforge.net/DTD/sodipodi-0.dtd"
   xmlns:inkscape="http://www.inkscape.org/namespaces/inkscape"
   width="640"
   height="336"
   viewBox="0 0 640 336"
   version="1.1"
   id="svg8"
   inkscape:version="0.92.4 5da689c313, 2019-01-14"
   sodipodi:docname="subpixels_mix.svg">
  <defs
     id="defs2">
    <linearGradient
       inkscape:collect="always"
       id="linearGradient5379">
      <stop
         style="stop-color:#3bceff;stop-opacity:1;"
         offset="0"
         id="stop5375" />
      <stop
         style="stop-color:#3bceff;stop-opacity:0;"
         offset="1"
         id="stop5377" />
    </linearGradient>
    <linearGradient
       inkscape:collect="always"
       id="linearGradient5371">
      <stop
         style="stop-color:#c1d650;stop-opacity:1;"
         offset="0"
         id="stop5367" />
      <stop
         style="stop-color:#c1d650;stop-opacity:0;"
         offset="1"
         id="stop5369" />
    </linearGradient>
    <linearGradient
       inkscape:collect="always"
       id="linearGradient5363">
      <stop
         style="stop-color:#ff7145;stop-opacity:1;"
         offset="0"
         id="stop5359" />
      <stop
         style="stop-color:#ff7145;stop-opacity:0;"
         offset="1"
         id="stop5361" />
    </linearGradient>
    <inkscape:path-effect
       only_selected="false"
       apply_with_weight="true"
       apply_no_weight="true"
       helper_size="0"
       steps="2"
       weight="33.333333"
       is_visible="true"
       id="path-effect1204"
       effect="bspline" />
    <inkscape:path-effect
       effect="bspline"
       id="path-effect1175"
       is_visible="true"
       weight="33.333333"
       steps="2"
       helper_size="0"
       apply_no_weight="true"
       apply_with_weight="true"
       only_selected="false" />
    <inkscape:path-effect
       only_selected="false"
       apply_with_weight="true"
       apply_no_weight="true"
       helper_size="0"
       steps="2"
       weight="33.333333"
       is_visible="true"
       id="path-effect822"
       effect="bspline" />
    <inkscape:path-effect
       effect="bspline"
       id="path-effect818"
       is_visible="true"
       weight="33.333333"
       steps="2"
       helper_size="0"
       apply_no_weight="true"
       apply_with_weight="true"
       only_selected="false" />
    <linearGradient
       inkscape:collect="always"
       xlink:href="#linearGradient5363"
       id="linearGradient5365"
       x1="55.8"
       y1="360.3614"
       x2="192"
       y2="360.3614"
       gradientUnits="userSpaceOnUse" />
    <linearGradient
       inkscape:collect="always"
       xlink:href="#linearGradient5371"
       id="linearGradient5373"
       x1="192"
       y1="360.46146"
       x2="328"
       y2="360.46146"
       gradientUnits="userSpaceOnUse" />
    <linearGradient
       inkscape:collect="always"
       xlink:href="#linearGradient5379"
       id="linearGradient5381"
       x1="396"
       y1="374.39603"
       x2="464"
       y2="374.39603"
       gradientUnits="userSpaceOnUse" />
  </defs>
  <sodipodi:namedview
     id="base"
     pagecolor="#393939"
     bordercolor="#666666"
     borderopacity="1.0"
     inkscape:pageopacity="0"
     inkscape:pageshadow="2"
     inkscape:zoom="2"
     inkscape:cx="202.94466"
     inkscape:cy="114.86448"
     inkscape:document-units="px"
     inkscape:current-layer="layer1"
     showgrid="true"
     units="px"
     inkscape:measure-start="0,0"
     inkscape:measure-end="0,0"
     inkscape:window-width="2880"
     inkscape:window-height="1696"
     inkscape:window-x="0"
     inkscape:window-y="104"
     inkscape:window-maximized="0"
     inkscape:snap-bbox="true"
     inkscape:snap-bbox-midpoints="true"
     inkscape:bbox-nodes="true"
     inkscape:snap-bbox-edge-midpoints="true">
    <inkscape:grid
       empspacing="4"
       empopacity="0.1254902"
       empcolor="#3f3fff"
       opacity="0.0627451"
       color="#3f3fff"
       id="grid20"
       type="xygrid" />
  </sodipodi:namedview>
  <metadata
     id="metadata5">
    <rdf:RDF>
      <cc:Work
         rdf:about="">
        <dc:format>image/svg+xml</dc:format>
        <dc:type
           rdf:resource="http://purl.org/dc/dcmitype/StillImage" />
        <dc:title />
      </cc:Work>
    </rdf:RDF>
  </metadata>
  <g
     inkscape:label="Layer 1"
     inkscape:groupmode="layer"
     id="layer1"
     transform="translate(0,-149.26665)">
    <path
       id="circle4938"
       style="opacity:1;fill:#ff7145;fill-opacity:1;stroke:none;stroke-width:4;stroke-linecap:square;stroke-miterlimit:4;stroke-dasharray:none;stroke-dashoffset:0;stroke-opacity:1;paint-order:fill markers stroke"
       sodipodi:type="arc"
       sodipodi:cx="56"
       sodipodi:cy="419.26617"
       sodipodi:rx="136"
       sodipodi:ry="136"
       sodipodi:start="4.712389"
       sodipodi:end="0"
       d="M 56.000003,283.26617 A 136,136 0 0 1 192,419.26617 l -136,0 z" />
    <path
       style="opacity:1;fill:#c1d650;fill-opacity:1;stroke:none;stroke-width:4;stroke-linecap:square;stroke-miterlimit:4;stroke-dasharray:none;stroke-dashoffset:0;stroke-opacity:1;paint-order:fill markers stroke"
       id="circle4942"
       sodipodi:type="arc"
       sodipodi:cx="192"
       sodipodi:cy="419.26617"
       sodipodi:rx="136"
       sodipodi:ry="136"
       sodipodi:start="3.1415927"
       sodipodi:end="0"
       d="m 56,419.26617 a 136,136 0 0 1 136,-136 136,136 0 0 1 136,136 l -136,0 z" />
    <path
       id="circle4944"
       style="opacity:1;fill:#3bceff;fill-opacity:1;stroke:none;stroke-width:4;stroke-linecap:square;stroke-miterlimit:4;stroke-dasharray:none;stroke-dashoffset:0;stroke-opacity:1;paint-order:fill markers stroke"
       sodipodi:type="arc"
       sodipodi:cx="328"
       sodipodi:cy="419.26617"
       sodipodi:rx="136"
       sodipodi:ry="136"
       sodipodi:start="3.1415927"
       sodipodi:end="0"
       d="m 192,419.26617 a 136,136 0 0 1 136,-136 136,136 0 0 1 136,136 l -136,0 z" />
    <path
       style="opacity:1;fill:#ff7145;fill-opacity:1;stroke:none;stroke-width:4;stroke-linecap:square;stroke-miterlimit:4;stroke-dasharray:none;stroke-dashoffset:0;stroke-opacity:1;paint-order:fill markers stroke"
       id="circle4946"
       sodipodi:type="arc"
       sodipodi:cx="532"
       sodipodi:cy="419.26617"
       sodipodi:rx="136"
       sodipodi:ry="136"
       sodipodi:start="3.1415927"
       sodipodi:end="4.712389"
       d="m 396,419.26617 a 136,136 0 0 1 136,-136 l 0,136 z" />
    <text
       xml:space="preserve"
       style="font-style:italic;font-variant:normal;font-weight:normal;font-stretch:normal;font-size:40px;line-height:1.25;font-family:'Latin Modern Roman';-inkscape-font-specification:'Latin Modern Roman, Italic';letter-spacing:0px;word-spacing:0px;fill:#ffffff;fill-opacity:0.87058824;stroke:none"
       x="14"
       y="202.58617"
       id="text1171"><tspan
         sodipodi:role="line"
         id="tspan1169"
         x="14"
         y="202.58617"
         style="font-style:italic;font-variant:normal;font-weight:normal;font-stretch:normal;font-family:'Latin Modern Roman';-inkscape-font-specification:'Latin Modern Roman, Italic';fill:#ffffff;fill-opacity:0.87058824">I</tspan></text>
    <path
       style="fill:#ffffff;fill-opacity:0.87058824;stroke:none;stroke-width:1px;stroke-linecap:butt;stroke-linejoin:miter;stroke-opacity:1"
       d="m 57,214.39101 c 0,0 14,0 14,0 0,0 -7,-12.12436 -7,-12.12436 0,0 -7,12.12436 -7,12.12436 z"
       id="path1173"
       inkscape:connector-curvature="0"
       inkscape:path-effect="#path-effect1175"
       inkscape:original-d="M 57,214.39101 H 71 L 64,202.26665 Z"
       sodipodi:nodetypes="cccc"
       transform="translate(-10,-51.124856)" />
    <text
       xml:space="preserve"
       style="font-style:normal;font-variant:normal;font-weight:normal;font-stretch:normal;font-size:40px;line-height:1.25;font-family:'latin modern sans';-inkscape-font-specification:'latin modern sans';letter-spacing:0px;word-spacing:0px;fill:#ffffff;fill-opacity:0.87058824;stroke:none"
       x="583.28003"
       y="459.26617"
       id="text1208"><tspan
         sodipodi:role="line"
         id="tspan1206"
         x="583.28003"
         y="459.26617"
         style="font-style:italic;font-variant:normal;font-weight:normal;font-stretch:normal;font-family:'Latin Modern Roman';-inkscape-font-specification:'Latin Modern Roman, Italic';fill:#ffffff;fill-opacity:0.87058824">x</tspan></text>
    <path
       transform="rotate(90,236.56243,593.82858)"
       sodipodi:nodetypes="cccc"
       inkscape:original-d="M 57,214.39101 H 71 L 64,202.26665 Z"
       inkscape:path-effect="#path-effect1204"
       inkscape:connector-curvature="0"
       id="path1202"
       d="m 57,214.39101 c 0,0 14,0 14,0 0,0 -7,-12.12436 -7,-12.12436 0,0 -7,12.12436 -7,12.12436 z"
       style="fill:#ffffff;fill-opacity:0.87058824;stroke:none;stroke-width:1px;stroke-linecap:butt;stroke-linejoin:miter;stroke-opacity:1" />
    <path
       style="opacity:1;fill:url(#linearGradient5373);fill-opacity:1;stroke:none;stroke-width:4;stroke-linecap:square;stroke-miterlimit:4;stroke-dasharray:none;stroke-dashoffset:0;stroke-opacity:1;paint-order:fill markers stroke"
       d="m 260,301.48665 c -42.04251,24.25274 -68.03042,69.24329 -68.1,117.7795 H 328 c -0.0518,-48.51849 -25.99057,-93.50494 -68,-117.7795 z"
       id="path4952"
       inkscape:connector-curvature="0"
       sodipodi:nodetypes="cccc" />
    <path
       style="opacity:1;fill:url(#linearGradient5365);fill-opacity:1;stroke:none;stroke-width:4;stroke-linecap:square;stroke-miterlimit:4;stroke-dasharray:none;stroke-dashoffset:0;stroke-opacity:1;paint-order:fill markers stroke"
       d="M 124.04297,301.45665 C 82.00046,325.70939 55.869576,370.72994 55.8,419.26615 H 192 c -0.0518,-48.51849 -25.9476,-93.53494 -67.95703,-117.8095 z"
       id="path4950"
       inkscape:connector-curvature="0"
       sodipodi:nodetypes="cccc" />
    <path
       id="path820"
       transform="rotate(90,63.000248,436.2664)"
       style="fill:none;stroke:#ffffff;stroke-width:4;stroke-linecap:square;stroke-linejoin:miter;stroke-miterlimit:4;stroke-dasharray:none;stroke-opacity:0.87058824"
       inkscape:path-effect="#path-effect822"
       inkscape:original-d="m 48,-114.73335 3e-6,560 H -208"
       d="m 48,-114.73335 c 0,0 3e-6,560 3e-6,560 0,0 -256.000003,0 -256.000003,0"
       inkscape:connector-curvature="0"
       sodipodi:nodetypes="ccc" />
    <path
       style="opacity:1;fill:url(#linearGradient5381);fill-opacity:1;stroke:none;stroke-width:4;stroke-linecap:square;stroke-miterlimit:4;stroke-dasharray:none;stroke-dashoffset:0;stroke-opacity:1;paint-order:fill markers stroke"
       d="m 429.99,329.32565 c -21.84783,24.79367 -34.04788,56.89429 -34.09,89.9405 H 464 c -0.0626,-33.05586 -12.13528,-65.15764 -34.01,-89.9405 z"
       id="path4981"
       inkscape:connector-curvature="0"
       sodipodi:nodetypes="cccc" />
    <g
       id="g5140"
       style="fill:#ffffff;fill-opacity:0.87058824"
       ns1:jacobian_sqrt="3.999999"
       inkscapeversion="0.92.4"
       ns1:alignment="middle center"
       ns1:scale="3.0"
       ns1:preamble="/home/phil/.config/inkscape/extensions/textext/preamble.tex"
       ns1:text="$1$"
       ns1:pdfconverter="pdf2svg"
       ns1:texconverter="pdflatex"
       ns1:version="0.11.0"
       transform="matrix(3.999999,0,0,3.999999,-566.97285,-245.01247)">
      <g
         style="fill:#ffffff;fill-opacity:0.87058824"
         id="g5138">
        <g
           id="g5136"
           style="fill:#ffffff;fill-opacity:0.87058824">
          <path
             id="path5134"
             transform="translate(148.712,134.765)"
             d="m 2.9375,-6.375 c 0,-0.25 0,-0.265625 -0.234375,-0.265625 C 2.078125,-6 1.203125,-6 0.890625,-6 v 0.3125 c 0.203125,0 0.78125,0 1.296875,-0.265625 v 5.171875 c 0,0.359375 -0.03125,0.46875 -0.921875,0.46875 h -0.3125 V 0 c 0.34375,-0.03125 1.203125,-0.03125 1.609375,-0.03125 0.390625,0 1.265625,0 1.609375,0.03125 v -0.3125 h -0.3125 c -0.90625,0 -0.921875,-0.109375 -0.921875,-0.46875 z m 0,0"
             style="fill:#ffffff;fill-opacity:0.87058824;stroke:none;stroke-width:0"
             inkscape:connector-curvature="0" />
        </g>
      </g>
    </g>
    <g
       id="g5198"
       style="fill:#ffffff;fill-opacity:0.87058824"
       ns1:jacobian_sqrt="3.999999"
       inkscapeversion="0.92.4"
       ns1:alignment="middle center"
       ns1:scale="3.0"
       ns1:preamble="/home/phil/.config/inkscape/extensions/textext/preamble.tex"
       ns1:text="$0$"
       ns1:pdfconverter="pdf2svg"
       ns1:texconverter="pdflatex"
       ns1:version="0.11.0"
       transform="matrix(3.999999,0,0,3.999999,-566.78535,-104.94998)">
      <g
         style="fill:#ffffff;fill-opacity:0.87058824"
         id="g5196">
        <g
           id="g5194"
           style="fill:#ffffff;fill-opacity:0.87058824">
          <path
             id="path5192"
             transform="translate(148.712,134.765)"
             d="m 4.578125,-3.1875 c 0,-0.796875 -0.046875,-1.59375 -0.390625,-2.328125 -0.453125,-0.96875 -1.28125,-1.125 -1.6875,-1.125 -0.609375,0 -1.328125,0.265625 -1.75,1.1875 -0.3125,0.6875 -0.359375,1.46875 -0.359375,2.265625 0,0.75 0.03125,1.640625 0.453125,2.40625 0.421875,0.796875 1.15625,1 1.640625,1 0.53125,0 1.296875,-0.203125 1.734375,-1.15625 0.3125,-0.6875 0.359375,-1.46875 0.359375,-2.25 z M 2.484375,0 C 2.09375,0 1.5,-0.25 1.328125,-1.203125 1.21875,-1.796875 1.21875,-2.71875 1.21875,-3.3125 c 0,-0.640625 0,-1.296875 0.078125,-1.828125 0.1875,-1.1875 0.9375,-1.28125 1.1875,-1.28125 0.328125,0 0.984375,0.1875 1.171875,1.171875 0.109375,0.5625 0.109375,1.3125 0.109375,1.9375 0,0.75 0,1.421875 -0.109375,2.0625 C 3.5,-0.296875 2.9375,0 2.484375,0 Z m 0,0"
             style="fill:#ffffff;fill-opacity:0.87058824;stroke:none;stroke-width:0"
             inkscape:connector-curvature="0" />
        </g>
      </g>
    </g>
    <g
       id="g5248"
       style="fill:#ffffff;fill-opacity:0.87058824;stroke:#ffffff;stroke-opacity:0.87058824"
       ns1:jacobian_sqrt="3.999999"
       inkscapeversion="0.92.4"
       ns1:alignment="middle center"
       ns1:scale="3.0"
       ns1:preamble="/home/phil/.config/inkscape/extensions/textext/preamble.tex"
       ns1:text="$\\frac{2}{7}$"
       ns1:pdfconverter="pdf2svg"
       ns1:texconverter="pdflatex"
       ns1:version="0.11.0"
       transform="matrix(3.999999,0,0,3.999999,-415.57016,-75.848964)">
      <g
         style="fill:#ffffff;fill-opacity:0.87058824;stroke:#ffffff;stroke-opacity:0.87058824"
         id="surface1">
        <g
           id="g5239"
           style="fill:#ffffff;fill-opacity:0.87058824;stroke:#ffffff;stroke-opacity:0.87058824">
          <path
             id="path5237"
             transform="translate(149.908,130.842)"
             d="M 3.515625,-1.265625 H 3.28125 c -0.015625,0.15625 -0.09375,0.5625 -0.1875,0.625 C 3.046875,-0.59375 2.515625,-0.59375 2.40625,-0.59375 H 1.125 c 0.734375,-0.640625 0.984375,-0.84375 1.390625,-1.171875 0.515625,-0.40625 1,-0.84375 1,-1.5 0,-0.84375 -0.734375,-1.359375 -1.625,-1.359375 -0.859375,0 -1.453125,0.609375 -1.453125,1.25 0,0.34375 0.296875,0.390625 0.375,0.390625 0.15625,0 0.359375,-0.125 0.359375,-0.375 0,-0.125 -0.046875,-0.375 -0.40625,-0.375 C 0.984375,-4.21875 1.453125,-4.375 1.78125,-4.375 c 0.703125,0 1.0625,0.546875 1.0625,1.109375 0,0.609375 -0.4375,1.078125 -0.65625,1.328125 L 0.515625,-0.265625 C 0.4375,-0.203125 0.4375,-0.1875 0.4375,0 h 2.875 z m 0,0"
             style="fill:#ffffff;fill-opacity:0.87058824;stroke:#ffffff;stroke-width:0;stroke-opacity:0.87058824"
             inkscape:connector-curvature="0" />
        </g>
        <path
           id="path5241"
           transform="matrix(1,0,0,-1,149.908,132.274)"
           d="M -0.00175,5.625e-4 H 3.970906"
           style="fill:#ffffff;fill-opacity:0.87058824;stroke:#ffffff;stroke-width:0.398;stroke-linecap:butt;stroke-linejoin:miter;stroke-miterlimit:10;stroke-opacity:0.87058824"
           inkscape:connector-curvature="0" />
        <g
           id="g5245"
           style="fill:#ffffff;fill-opacity:0.87058824;stroke:#ffffff;stroke-opacity:0.87058824">
          <path
             id="path5243"
             transform="translate(149.908,138.2)"
             d="m 3.734375,-4.203125 c 0.0625,-0.09375 0.0625,-0.109375 0.0625,-0.28125 H 1.96875 C 1.6875,-4.484375 1.609375,-4.5 1.359375,-4.515625 1,-4.546875 0.984375,-4.59375 0.96875,-4.703125 H 0.734375 l -0.25,1.484375 H 0.71875 c 0.015625,-0.109375 0.09375,-0.5625 0.203125,-0.640625 0.046875,-0.03125 0.625,-0.03125 0.71875,-0.03125 H 3.15625 c -0.21875,0.28125 -0.578125,0.71875 -0.71875,0.921875 -0.90625,1.1875 -1,2.296875 -1,2.703125 0,0.078125 0,0.40625 0.328125,0.40625 0.34375,0 0.34375,-0.3125 0.34375,-0.40625 v -0.28125 c 0,-1.34375 0.28125,-1.96875 0.578125,-2.34375 z m 0,0"
             style="fill:#ffffff;fill-opacity:0.87058824;stroke:#ffffff;stroke-width:0;stroke-opacity:0.87058824"
             inkscape:connector-curvature="0" />
        </g>
      </g>
    </g>
    <g
       id="g5323"
       style="fill:#ffffff;fill-opacity:0.87058824;stroke:#ffffff;stroke-opacity:0.87058824"
       ns1:jacobian_sqrt="3.999999"
       inkscapeversion="0.92.4"
       ns1:alignment="middle center"
       ns1:scale="3.0"
       ns1:preamble="/home/phil/.config/inkscape/extensions/textext/preamble.tex"
       ns1:text="$\\frac{4}{7}$"
       ns1:pdfconverter="pdf2svg"
       ns1:texconverter="pdflatex"
       ns1:version="0.11.0"
       transform="matrix(3.999999,0,0,3.999999,-279.57016,-75.692714)">
      <g
         style="fill:#ffffff;fill-opacity:0.87058824;stroke:#ffffff;stroke-opacity:0.87058824"
         id="g5321">
        <g
           id="g5313"
           style="fill:#ffffff;fill-opacity:0.87058824;stroke:#ffffff;stroke-opacity:0.87058824">
          <path
             id="path5311"
             transform="translate(149.908,130.842)"
             d="m 3.6875,-1.140625 v -0.25 H 2.90625 V -4.5 c 0,-0.140625 0,-0.203125 -0.140625,-0.203125 -0.09375,0 -0.125,0 -0.1875,0.109375 l -2.3125,3.203125 v 0.25 h 2.0625 v 0.5625 c 0,0.25 0,0.328125 -0.578125,0.328125 H 1.5625 V 0 C 1.921875,-0.015625 2.359375,-0.03125 2.609375,-0.03125 2.875,-0.03125 3.3125,-0.015625 3.671875,0 v -0.25 h -0.1875 C 2.90625,-0.25 2.90625,-0.328125 2.90625,-0.578125 v -0.5625 z M 2.375,-3.9375 v 2.546875 H 0.53125 Z m 0,0"
             style="fill:#ffffff;fill-opacity:0.87058824;stroke:#ffffff;stroke-width:0;stroke-opacity:0.87058824"
             inkscape:connector-curvature="0" />
        </g>
        <path
           id="path5315"
           transform="matrix(1,0,0,-1,149.908,132.274)"
           d="M -0.00175,5.625e-4 H 3.970906"
           style="fill:#ffffff;fill-opacity:0.87058824;stroke:#ffffff;stroke-width:0.398;stroke-linecap:butt;stroke-linejoin:miter;stroke-miterlimit:10;stroke-opacity:0.87058824"
           inkscape:connector-curvature="0" />
        <g
           id="g5319"
           style="fill:#ffffff;fill-opacity:0.87058824;stroke:#ffffff;stroke-opacity:0.87058824">
          <path
             id="path5317"
             transform="translate(149.908,138.2)"
             d="m 3.734375,-4.203125 c 0.0625,-0.09375 0.0625,-0.109375 0.0625,-0.28125 H 1.96875 C 1.6875,-4.484375 1.609375,-4.5 1.359375,-4.515625 1,-4.546875 0.984375,-4.59375 0.96875,-4.703125 H 0.734375 l -0.25,1.484375 H 0.71875 c 0.015625,-0.109375 0.09375,-0.5625 0.203125,-0.640625 0.046875,-0.03125 0.625,-0.03125 0.71875,-0.03125 H 3.15625 c -0.21875,0.28125 -0.578125,0.71875 -0.71875,0.921875 -0.90625,1.1875 -1,2.296875 -1,2.703125 0,0.078125 0,0.40625 0.328125,0.40625 0.34375,0 0.34375,-0.3125 0.34375,-0.40625 v -0.28125 c 0,-1.34375 0.28125,-1.96875 0.578125,-2.34375 z m 0,0"
             style="fill:#ffffff;fill-opacity:0.87058824;stroke:#ffffff;stroke-width:0;stroke-opacity:0.87058824"
             inkscape:connector-curvature="0" />
        </g>
      </g>
    </g>
    <g
       transform="matrix(3.999999,0,0,3.999999,-72.97285,-83.634714)"
       ns1:version="0.11.0"
       ns1:texconverter="pdflatex"
       ns1:pdfconverter="pdf2svg"
       ns1:text="$1$"
       ns1:preamble="/home/phil/.config/inkscape/extensions/textext/preamble.tex"
       ns1:scale="3.0"
       ns1:alignment="middle center"
       inkscapeversion="0.92.4"
       ns1:jacobian_sqrt="3.999999"
       style="fill:#ffffff;fill-opacity:0.87058824"
       id="g5341">
      <g
         id="g5339"
         style="fill:#ffffff;fill-opacity:0.87058824">
        <g
           style="fill:#ffffff;fill-opacity:0.87058824"
           id="g5337">
          <path
             inkscape:connector-curvature="0"
             style="fill:#ffffff;fill-opacity:0.87058824;stroke:none;stroke-width:0"
             d="m 2.9375,-6.375 c 0,-0.25 0,-0.265625 -0.234375,-0.265625 C 2.078125,-6 1.203125,-6 0.890625,-6 v 0.3125 c 0.203125,0 0.78125,0 1.296875,-0.265625 v 5.171875 c 0,0.359375 -0.03125,0.46875 -0.921875,0.46875 h -0.3125 V 0 c 0.34375,-0.03125 1.203125,-0.03125 1.609375,-0.03125 0.390625,0 1.265625,0 1.609375,0.03125 v -0.3125 h -0.3125 c -0.90625,0 -0.921875,-0.109375 -0.921875,-0.46875 z m 0,0"
             transform="translate(148.712,134.765)"
             id="path5335" />
        </g>
      </g>
    </g>
  </g>
</svg>
