<svg height="112" viewBox="10 10 56 56" width="112" xmlns="http://www.w3.org/2000/svg">
	<g transform="translate(-1 -11.5)">
		<g>
			<path d="m29.3 55c-.5 0-1 .4-1 1v2.3h-2.3c-.6 0-1 .5-1 1v1.3c0 .6.4 1 1 1h2.3v2.4c0 .5.5 1 1 1h1.4c.5 0 1-.5 1-1v-2.4h2.3c.6 0 1-.4 1-1v-1.3c0-.5-.4-1-1-1h-2.3v-2.3c0-.6-.5-1-1-1z"/>
			<circle cx="51" cy="58" r="2"/>
			<circle cx="45" cy="62" r="2"/>
			<path d="m28 9c-1.11 0-2 .89-2 2v50c0 1.11.89 2 2 2h56c1.11 0 2-.89 2-2v-50c0-1.11-.89-2-2-2zm7 6h42c1.11 0 2 .89 2 2v38c0 1.11-.89 2-2 2h-42c-1.11 0-2-.89-2-2v-38c0-1.11.89-2 2-2z" stroke-width="2" transform="matrix(.5 0 0 .5 11 21.5)"/>
			<rect height="1" ry=".5" width="3" x="35" y="70"/>
			<rect height="1" ry=".5" width="3" x="40" y="70"/>
		</g>
		<path d="m22 71v1.1c0 .8.5 1.5 1.2 1.8 0 0 3.5 1.1 15.8 1.1s15.8-1.1 15.8-1.1c.7-.3 1.2-1 1.2-1.8v-1.1c0 .8-.5 1.6-1.2 1.9 0 0-3.5 1.1-15.8 1.1s-15.8-1.1-15.8-1.1c-.7-.3-1.2-1.1-1.2-1.9z"/>
	</g>
</svg>
