<?xml version="1.0" encoding="UTF-8" standalone="no"?>
<svg
   xmlns:dc="http://purl.org/dc/elements/1.1/"
   xmlns:cc="http://creativecommons.org/ns#"
   xmlns:rdf="http://www.w3.org/1999/02/22-rdf-syntax-ns#"
   xmlns:svg="http://www.w3.org/2000/svg"
   xmlns="http://www.w3.org/2000/svg"
   xmlns:xlink="http://www.w3.org/1999/xlink"
   xmlns:sodipodi="http://sodipodi.sourceforge.net/DTD/sodipodi-0.dtd"
   xmlns:inkscape="http://www.inkscape.org/namespaces/inkscape"
   width="150"
   height="150"
   viewBox="10 10 75 75"
   version="1.1"
   id="svg73"
   sodipodi:docname="mstile.svg"
   inkscape:version="0.92.4 5da689c313, 2019-01-14"
   inkscape:export-filename="/home/phil/Documents/coding/tmp/gbcc/icons/mstile-150x150.png"
   inkscape:export-xdpi="96"
   inkscape:export-ydpi="96">
  <metadata
     id="metadata79">
    <rdf:RDF>
      <cc:Work
         rdf:about="">
        <dc:format>image/svg+xml</dc:format>
        <dc:type
           rdf:resource="http://purl.org/dc/dcmitype/StillImage" />
        <dc:title></dc:title>
      </cc:Work>
    </rdf:RDF>
  </metadata>
  <defs
     id="defs77">
    <radialGradient
       inkscape:collect="always"
       xlink:href="#c"
       id="radialGradient987"
       gradientUnits="userSpaceOnUse"
       gradientTransform="matrix(1.5,0,0,1.6,13.1,-579.1)"
       cx="18"
       cy="395"
       r="42" />
    <filter
       inkscape:collect="always"
       style="color-interpolation-filters:sRGB"
       id="filter1722"
       x="-0.12"
       width="1.24"
       y="-0.080000001"
       height="1.16">
      <feGaussianBlur
         inkscape:collect="always"
         stdDeviation="1.7000001"
         id="feGaussianBlur1724" />
    </filter>
  </defs>
  <sodipodi:namedview
     pagecolor="#ffffff"
     bordercolor="#666666"
     borderopacity="1"
     objecttolerance="10"
     gridtolerance="10"
     guidetolerance="10"
     inkscape:pageopacity="0"
     inkscape:pageshadow="2"
     inkscape:window-width="2880"
     inkscape:window-height="1696"
     id="namedview75"
     showgrid="true"
     inkscape:zoom="8.0000004"
     inkscape:cx="63.874737"
     inkscape:cy="70.461003"
     inkscape:window-x="0"
     inkscape:window-y="104"
     inkscape:window-maximized="0"
     inkscape:current-layer="layer2">
    <inkscape:grid
       type="xygrid"
       id="grid872" />
  </sodipodi:namedview>
  <clipPath
     id="a">
    <path
       d="m 38,28 c -0.5,0 -1,0.4 -1,1 v 47 c 0,0.8 0.5,1.6 1.2,1.9 0,0 3.5,1.1 15.8,1.1 12.3,0 15.8,-1.1 15.8,-1.1 C 70.5,77.6 71,76.8 71,76 V 29 c 0,-0.6 -0.5,-1 -1,-1 z"
       id="path2"
       inkscape:connector-curvature="0" />
  </clipPath>
  <filter
     id="b"
     height="1.2"
     width="1.2"
     x="-0.1"
     y="-0.1"
     style="color-interpolation-filters:sRGB">
    <feGaussianBlur
       stdDeviation="1.7"
       id="feGaussianBlur5" />
  </filter>
  <radialGradient
     id="c"
     cx="18"
     cy="395"
     gradientTransform="matrix(1.5,0,0,1.6,13.1,-579.1)"
     gradientUnits="userSpaceOnUse"
     r="42">
    <stop
       offset="0"
       stop-color="#fff"
       stop-opacity=".1"
       id="stop8" />
    <stop
       offset="1"
       stop-color="#fff"
       stop-opacity="0"
       id="stop10" />
  </radialGradient>
  <g
     inkscape:groupmode="layer"
     id="layer1"
     inkscape:label="Background"
     transform="translate(0,-15)"
     sodipodi:insensitive="true">
    <rect
       style="opacity:0.98999999;fill:#009688;fill-opacity:1;stroke:none;stroke-width:0.5;stroke-miterlimit:4;stroke-dasharray:1.49999999, 0.5;stroke-dashoffset:0;stroke-opacity:0.50196078;paint-order:fill markers stroke"
       id="rect874"
       width="75"
       height="75"
       x="10"
       y="25" />
  </g>
  <g
     inkscape:groupmode="layer"
     id="layer2"
     inkscape:label="Icon"
     transform="translate(0,-15)">
    <path
       d="m 33.5,38.999999 c -0.5,0 -1,0.4 -1,1 v 47 c 0,0.8 0.5,1.600001 1.2,1.900001 0,0 3.5,1.1 15.800001,1.1 12.300001,0 15.800001,-1.1 15.800001,-1.1 0.7,-0.3 1.2,-1.100001 1.2,-1.900001 v -47 c 0,-0.6 -0.5,-1 -1,-1 z"
       id="path13"
       inkscape:connector-curvature="0"
       style="opacity:0.2;fill:#020202;stroke-width:1;filter:url(#filter1722)" />
    <path
       d="m 31.5,37.000001 c -0.5,0 -1,0.4 -1,1 v 47 c 0,0.8 0.5,1.6 1.2,1.9 0,0 3.5,1.100001 15.800001,1.100001 12.3,0 15.800001,-1.100001 15.800001,-1.100001 0.7,-0.3 1.2,-1.1 1.2,-1.9 v -47 c 0,-0.6 -0.5,-1 -1,-1 z"
       id="path15"
       inkscape:connector-curvature="0"
       style="fill:#fdd827;stroke-width:1" />
    <g
       id="g29"
       style="fill:#373737;stroke-width:0.99999994"
       transform="translate(8.4999985,12.999998)">
      <path
         d="m 29.3,55 c -0.5,0 -1,0.4 -1,1 v 2.3 H 26 c -0.6,0 -1,0.5 -1,1 v 1.3 c 0,0.6 0.4,1 1,1 h 2.3 V 64 c 0,0.5 0.5,1 1,1 h 1.4 c 0.5,0 1,-0.5 1,-1 V 61.6 H 34 c 0.6,0 1,-0.4 1,-1 v -1.3 c 0,-0.5 -0.4,-1 -1,-1 H 31.7 V 56 c 0,-0.6 -0.5,-1 -1,-1 z"
         id="path17"
         inkscape:connector-curvature="0"
         style="stroke-width:0.99999994" />
      <circle
         cx="51"
         cy="58"
         r="2"
         id="circle19"
         style="stroke-width:0.99999994" />
      <circle
         cx="45"
         cy="62"
         r="2"
         id="circle21"
         style="stroke-width:0.99999994" />
      <rect
         height="27"
         ry="1"
         width="30"
         x="24"
         y="26"
         id="rect23"
         style="stroke-width:0.99999994" />
      <rect
         height="1"
         ry="0.5"
         width="3"
         x="35"
         y="70"
         id="rect25"
         style="stroke-width:0.99999994" />
      <rect
         height="1"
         ry="0.5"
         width="3"
         x="40"
         y="70"
         id="rect27"
         style="stroke-width:0.99999994" />
    </g>
    <rect
       height="21.000002"
       ry="1"
       width="23"
       x="36"
       y="41.999996"
       id="rect31"
       style="fill:#c0c0c0;stroke-width:1" />
    <g
       id="g59"
       style="opacity:0.2;stroke-width:0.99999994"
       transform="translate(8.4999985,12.999998)">
      <path
         d="m 40,70.4 v 0.1 c 0,0.2 0.2,0.5 0.5,0.5 h 2 c 0.3,0 0.5,-0.3 0.5,-0.5 0,-0.1 0,-0.1 0,-0.1 -0.1,0.2 -0.3,0.4 -0.5,0.4 h -2 c -0.2,0 -0.4,-0.2 -0.5,-0.4 z"
         id="path33"
         inkscape:connector-curvature="0"
         style="stroke-width:0.99999994" />
      <path
         d="m 35,70.4 v 0.1 c 0,0.2 0.2,0.5 0.5,0.5 h 2 c 0.3,0 0.5,-0.3 0.5,-0.5 0,-0.1 0,-0.1 0,-0.1 -0.1,0.2 -0.3,0.4 -0.5,0.4 h -2 c -0.2,0 -0.4,-0.2 -0.5,-0.4 z"
         id="path35"
         inkscape:connector-curvature="0"
         style="stroke-width:0.99999994" />
      <path
         d="m 43,61.7 a 2,2 0 0 0 0,0.3 2,2 0 0 0 2,2 2,2 0 0 0 2,-2 2,2 0 0 0 0,-0.3 2,2 0 0 1 -2,1.8 2,2 0 0 1 -2,-1.8 z"
         id="path37"
         inkscape:connector-curvature="0"
         style="stroke-width:0.99999994" />
      <path
         d="m 49,57.7 a 2,2 0 0 0 0,0.3 2,2 0 0 0 2,2 2,2 0 0 0 2,-2 2,2 0 0 0 0,-0.3 2,2 0 0 1 -2,1.8 2,2 0 0 1 -2,-1.8 z"
         id="path39"
         inkscape:connector-curvature="0"
         style="stroke-width:0.99999994" />
      <path
         d="m 22,71 v 1.1 c 0,0.8 0.5,1.5 1.2,1.8 0,0 3.5,1.1 15.8,1.1 12.3,0 15.8,-1.1 15.8,-1.1 0.7,-0.3 1.2,-1 1.2,-1.8 V 71 c 0,0.8 -0.5,1.6 -1.2,1.9 0,0 -3.5,1.1 -15.8,1.1 C 26.7,74 23.2,72.9 23.2,72.9 22.5,72.6 22,71.8 22,71 Z"
         id="path41"
         inkscape:connector-curvature="0"
         style="stroke-width:0.99999994" />
      <path
         d="m 25,60.1 v 0.5 c 0,0.6 0.4,1 1,1 h 2.3 V 61.1 H 26 c -0.6,0 -1,-0.4 -1,-1 z m 10,0 c 0,0.6 -0.4,1 -1,1 h -2.3 v 0.5 H 34 c 0.6,0 1,-0.4 1,-1 z m -6.7,3.4 V 64 c 0,0.5 0.5,1 1,1 h 1.4 c 0.5,0 1,-0.5 1,-1 v -0.5 c 0,0.5 -0.5,1 -1,1 h -1.4 c -0.5,0 -1,-0.5 -1,-1 z"
         id="path43"
         inkscape:connector-curvature="0"
         style="stroke-width:0.99999994" />
      <g
         id="g57"
         style="fill:#ffffff;stroke-width:0.99999994">
        <path
           d="m 29.3,55 c -0.5,0 -1,0.4 -1,1 v 0.5 c 0,-0.6 0.5,-1 1,-1 h 1.4 c 0.5,0 1,0.4 1,1 V 56 c 0,-0.6 -0.5,-1 -1,-1 z M 26,58.3 c -0.6,0 -1,0.5 -1,1 v 0.5 c 0,-0.5 0.4,-1 1,-1 h 2.3 v -0.5 z m 5.7,0 v 0.5 H 34 c 0.6,0 1,0.5 1,1 v -0.5 c 0,-0.5 -0.4,-1 -1,-1 z"
           id="path45"
           inkscape:connector-curvature="0"
           style="stroke-width:0.99999994" />
        <path
           d="m 51,56 a 2,2 0 0 0 -2,2 2,2 0 0 0 0,0.2 2,2 0 0 1 2,-1.7 2,2 0 0 1 2,1.7 2,2 0 0 0 0,-0.2 2,2 0 0 0 -2,-2 z"
           id="path47"
           inkscape:connector-curvature="0"
           style="stroke-width:0.99999994" />
        <path
           d="m 45,60 a 2,2 0 0 0 -2,2 2,2 0 0 0 0,0.2 2,2 0 0 1 2,-1.7 2,2 0 0 1 2,1.7 2,2 0 0 0 0,-0.2 2,2 0 0 0 -2,-2 z"
           id="path49"
           inkscape:connector-curvature="0"
           style="stroke-width:0.99999994" />
        <path
           d="m 23,24 c -0.5,0 -1,0.4 -1,1 v 1 c 0,-0.6 0.3,-1 0.9,-1 h 32 c 0.6,0 1.1,0.4 1.1,1 v -1 c 0,-0.6 -0.5,-1 -1.1,-1 z"
           id="path51"
           inkscape:connector-curvature="0"
           sodipodi:nodetypes="sscsscsss"
           style="stroke-width:0.99999994" />
        <path
           d="M 40.5,70 C 40.2,70 40,70.2 40,70.5 v 0.1 c 0.1,-0.3 0.3,-0.4 0.5,-0.4 h 2 c 0.2,0 0.4,0.1 0.5,0.4 0,-0.1 0,-0.1 0,-0.1 C 43,70.2 42.8,70 42.5,70 Z"
           id="path53"
           inkscape:connector-curvature="0"
           style="stroke-width:0.99999994" />
        <path
           d="M 35.5,70 C 35.2,70 35,70.2 35,70.5 v 0.1 c 0.1,-0.3 0.3,-0.4 0.5,-0.4 h 2 c 0.2,0 0.4,0.1 0.5,0.4 0,-0.1 0,-0.1 0,-0.1 C 38,70.2 37.8,70 37.5,70 Z"
           id="path55"
           inkscape:connector-curvature="0"
           style="stroke-width:0.99999994" />
      </g>
    </g>
    <ellipse
       clip-path="url(#a)"
       cx="41"
       cy="42"
       rx="65"
       ry="66"
       transform="translate(-6.5000021,8.999998)"
       id="ellipse71"
       style="fill:url(#radialGradient987);stroke-width:0.99999994" />
  </g>
</svg>
