<svg height="1193.59" viewBox="0 0 2068.25 1193.59" width="2068.25" xmlns="http://www.w3.org/2000/svg" xmlns:xlink="http://www.w3.org/1999/xlink">
	<radialGradient id="a" cx="-27.58" cy="-17.37" gradientUnits="userSpaceOnUse" r="5.54">
		<stop offset="0" stop-color="#fefefe"/>
		<stop offset=".30000001" stop-color="#fff"/>
		<stop offset="1" stop-color="#fff" stop-opacity="0"/>
	</radialGradient>
	<filter id="b" color-interpolation-filters="sRGB" height="1.34" width="1.06" x="-.03" y="-.17">
		<feGaussianBlur stdDeviation="9.1625607"/>
	</filter>
	<filter id="c" color-interpolation-filters="sRGB" height="1.29" width="1.06" x="-.03" y="-.15">
		<feGaussianBlur stdDeviation="7.5887339"/>
	</filter>
	<filter id="d" color-interpolation-filters="sRGB" height="2.03" width="1.44" x="-.22" y="-.51">
		<feGaussianBlur stdDeviation="52.11435"/>
	</filter>
	<g transform="translate(-61.03 28.11)">
		<path d="m1860.94 445.86a24.41 48.08 88.65 0 1 -.38 3.62 24.41 48.08 88.65 0 1 -42.51 21.9 24.41 48.08 88.65 0 1 -50.44-15.17l.63-2.5c-.02-.01-.04-.01-.06-.02-4.54 2.43-9.96 4.42-15.83 5.93-1.23.98-2.49 1.94-3.81 2.89-2.23 1.59-4.27 3.28-7.18 4.6-.74.34-1.53.65-2.3.97a14.08 27.74 88.65 0 1 .06 4.54 14.08 27.74 88.65 0 1 -31.85 12.19 14.08 27.74 88.65 0 1 -19.83-6.83c-1.69.85-3.74 1.49-6.06 1.74-4.55.48-9.08 1.09-13.43 1.97-1.61.32-3.31.73-4.35 1.48-.78.56-.59 1.26-.2 1.87 1.5-.2 3.06-.27 4.59-.2 4.92.23 9.18 1.58 13.08 2.99 3.66 1.32 7.99 2.06 12.35 2.59 5.39.65 10.83 1.25 16.06 2.19 4.92.88 9.75 1.93 14.07 3.41 5.64 1.92 10.78 4.31 14.37 7.26 2.48 2.04 4.19 4.46 3.57 6.93-.39 1.57-1.61 3.16-3.79 4.32-2.81 1.49-6.92 2.09-10.78 2.28-6.72.32-13.43-.2-19.9-.95-12.19-1.41-23.95-3.58-35.37-6.06-5.3-1.15-10.56-2.36-15.68-3.7-3.01-.81-4.71-2.44-5.58-4.06-.28-.51-.48-1.02-.64-1.54-2.46-.68-4.9-1.38-7.38-2.04-4.88-1.3-9.81-2.67-13.69-4.68-2.71-1.4-4.7-3.2-5.17-5.2-.37-1.6-.16-3.25.46-4.84.96-2.5 3.36-4.84 6.55-6.82 4.35-2.71 9.75-4.93 15.11-7.1.87-.34 1.83-.62 2.81-.88 2.25-.61 4.61-1.12 7.07-1.43 1.25-.16 2.51-.31 3.77-.46-2.04-.14-4.08-.3-6.08-.53-1.4-.16-4.07-.27-3.77-1.16.32-.96 2.05-1.6 3.48-2.15.75-.29 1.52-.57 2.3-.85-9.84-.52-19.69-1.02-29.55-1.47-.06.08-.12.17-.18.25-.68.89-2.42 1.52-4.16 1.88-3.14.64-6.59.39-9.76.05-7.48-.8-14.39-2.5-21.73-3.53-1.36-.04-2.72-.09-4.08-.13-2.58 1.54-6.03 2.71-9.9 3.13-3.69.4-7.47.43-11.2.42-11.42-.01-22.87-.65-33.74-2.26-4.39-.65-9-1.25-12.67-2.64-1.12-.43-2.51-1-2.22-1.83.4-1.16.9-2.31 1.34-3.46-5.18 1.38-11.28 1.84-16.87 1.19-4.01-.47-7.45-1.74-10.02-3.36-.95-.6-1.4-1.33-2.41-1.92-.63-.36-1.19-.75-1.71-1.15-.36.28-.78.54-1.25.77-2.53 1.23-5.88 1.87-9.16 2.33-6.25.87-12.76.99-19.16.93-5.99-.05-11.99-.35-17.76-1.12-6.82-.9-14-1.16-20.66-2.33.17.43.36.86.58 1.28 1.19 2.31-9.4.83-14.14.9-9.76.14-19.47-.42-29.24-.14-10.54.32-21.12.56-31.59 1.46-2.46.21-5 .41-7.42.09-.62-.08-1.22-.2-1.78-.34-1.49 1.41-3.22 2.76-5.12 4.03-4.33 2.92-9.28 5.59-14.44 8.13-2.29 1.13-4.8 2.2-7.72 2.86-1.83.42-3.97.64-5.86.27-1.93-.38-3.19-1.3-3.96-2.23-.77-.95-1.35-1.95-1.52-2.98-.27-1.65.59-3.3 1.66-4.87 2.41-3.51 6.11-6.79 8.38-10.33.27-.43.52-.86.73-1.29.78-1.63 2.29-3.24 4.8-4.4 2.63-1.21 6.08-1.82 9.48-2.11 4.16-.36 8.39-.42 12.55-.28 1.18.04 2.39.16 3.46.41.33-.12.67-.22 1.02-.33 3.34-.96 6.92-1.7 10.55-2.31 4.83-.81 9.89-1.17 14.91-1.19 9.5-.04 19.02-.18 28.47-.85 4-.29 7.92-.8 11.87-1.22 4.99-.54 10.09-.73 15.13-.6.89.02.45.31.26.57 2.81-.01 5.62.16 8.33.46 4.06.44 8.16.78 12.32.88 6.19.16 12.4.07 18.61-.05-.55-.23-1.06-.48-1.51-.76-.83.05-1.65.1-2.47.13-8.26.3-16.48-.37-24.47-1.25-6.67-.74-13.26-1.73-19.43-3.18-8.74-2.06-18.2-3.37-26.45-5.93-1.03.83-7.03-.67-9.99-.88-17.04-1.21-33.17-4.26-50.02-5.87-15.12-1.42-30.23-2.94-45.61-3.62-4.28-.19-8.74-.73-12.1-2.09-1.9.8-3.9 1.55-5.96 2.24-5.68 1.91-11.68 3.54-17.8 5.01-2.91.7-5.98 1.3-9.17 1.43-1.97.08-4.11-.1-5.57-.79-1.56-.75-2.08-1.89-2.13-2.96-.05-.98.07-1.98.57-2.93.88-1.67 2.85-3.14 4.95-4.48 4.51-2.9 10-5.38 14.34-8.35.5-.34.99-.69 1.44-1.05 2.6-2.08 6.46-3.77 10.96-4.7 4.93-1.01 10.42-1.07 15.45-.47 2.07.25 4.14.54 6.05 1.01 1.35.33 2.47.91 3.01 1.62 2.7-.18 5.41-.3 8.12-.38 7.54-.22 15.07.2 22.35 1.04 13.03 1.5 26.13 2.93 39.45 3.74 5.48.33 11.01.43 16.53.58 7.5.2 14.9.85 22.08 1.87.85.12.41.26.12.5-.13.11-.25.22-.38.33 4.47.26 8.83.9 12.93 1.79 4.8 1.04 9.72 1.95 14.8 2.58 13.24 1.65 26.89 2.35 40.36 3.49 1.11-.93 2.61-1.74 4.55-2.24 4.07-1.05 8.7-1.17 13.1-1.17 10.42 0 20.77.51 31.12.93 6.64.26 13.28.53 19.96.51 12.76-.04 25.67-.64 38.26.4.57.05 1.14.11 1.71.16 4.39-.12 8.81.09 13.13.33 11.98.69 23.84 1.75 35.72 2.74.46-.71.98-1.41 1.57-2.1.46-.53 2.25.04 3.37.08 3.32.13 6.82.4 9.54 1.41 1.35.5 2.31 1.19 3 1.96.82.06 1.63.13 2.44.18 8.62.56 17.32 1.06 26.05 1.24-4.42-.69-8.98-1.2-13.03-2.29-1.17-.32-3.58-.84-2.63-1.61 1.06-.86 3.08-1.23 4.84-1.57 11.93-2.31 24.72-2.66 37.21-3.02 12.78-.36 25.83-.73 38.09-3.01 3.71-.69 7.09-1.76 10.6-2.68 7.54-1.98 16.17-2.66 24.42-2.33 7.2.29 14.55 1.36 19.91 3.84 3.89 1.8 6.01 4.52 5.66 7.24-.08.65-.22 1.29-.38 1.93.44.43.9.86 1.42 1.27 4.4 3.42 9.58 6.55 14.91 9.6a24.41 48.08 88.65 0 1 26.34.68 24.41 48.08 88.65 0 1 30.96 21.78z" fill-opacity=".36" filter="url(#c)"/>
		<path d="m1754.4 491.18a61.77 19.53 1.48 0 1 -2.57 2.69 61.77 19.53 1.48 0 1 -64.82 11 61.77 19.53 1.48 0 1 -52.31-15.24c-.32.09-.62.19-.95.29-.28.08-.6.15-.89.23-2.38 1.43-5.43 2.73-8.74 3.95-5.36 1.97-11.82 3.65-19.08 4.9-1.67 1.3-3.45 2.58-5.42 3.83-3.97 2.51-10.09 4.58-16.63 6.42-9.6 2.7-21.33 4.69-34.27 5.47-9.11.55-18.43 1-27.84.86-2.54-.04-5.99.18-7.66-.55s-.78-1.65-.27-2.41c1.96-2.89 3.29-5.91 2.81-8.93-1.67.37-3.44.69-5.29.95-3.08.43-6.47.61-9.89.65-7.95.1-15.98-.26-23.94-.63-15.22-.72-30.31-1.83-45.33-3.03-.56.28-1.93.21-2.92.18-11.68-.35-23.24-1.43-34.56-2.61-15.49-1.62-30.28-3.92-44.85-6.31-3.19-.52-6.32-1.21-8.19-2.21-.32-.17-.51-.36-.75-.54-1.85-.05-3.69-.13-5.5-.27-6.06-.48-11.91-1.31-17.23-2.41-3.83-.79-7.43-1.76-9.96-2.99-1.77-.85-2.86-1.88-2.43-2.86.48-1.1 2.54-2.01 5-2.72 1.56-.45 3.98-.48 6.1-.59 5.24-.27 10.74.01 15.92.54 7.84.8 15.11 2.11 22.5 3.29 4.89-.5 10.4-.49 15.47.09 7.94.9 15.77 1.92 23.73 2.81 13.62 1.51 27.48 2.75 41.41 3.82.75.06 1.6.15 2.07.37.22.1.31.21.32.33 1.16.06 2.31.14 3.45.22 6.71.51 13.3 1.22 20.06 1.66 11.28.73 22.78.88 33.9.4 1.76-.08 3.54-.14 5.34-.17-.75-.29-1.47-.59-2.23-.88-8.41-3.12-17.73-5.98-27.04-8.84-3.36-1.03-6.99-2-10.01-3.14-4.71-.64-9.44-1.25-14.22-1.83 0 .07.01.15.01.22-3.12-.2-6.02-.66-8.71-1.23-12.7-1.41-25.61-2.57-38.69-3.43-.12.19-.24.37-.36.56-1.04 1.6-10.36-.02-15.49-.34-26.75-1.66-53.47-3.37-80.24-4.95-20.1-1.19-40.22-2.37-60.4-3.31-1.52-.06-3.04-.18-4.5-.35-.48-.06-.93-.13-1.39-.2-1.05.25-4.65.08-6.42.1-8.14.11-16.35-.48-24.52-.51-8.95-.03-17.84.17-26.74.29-11.02.16-22.18.28-33.27-.37-.92-.05-1.83-.12-2.74-.19.35.44-7.32-.62-10.31-.9-4.8-.45-9.49-1.07-14.38-1.4-13.37-.89-26.67-1.87-40.08-2.63-12.43-.7-24.9-1.3-37.27-2.18-8.47-.6-17.12-1.03-25.38-1.96-1.67.25-3.6.35-5.49.35-4.29.01-8.59-.36-12.68-.85-3.72-.45-7.35-1.03-10.56-1.81-3.79-.92-6.9-2.12-9.37-3.41-3.55-1.85-5.62-3.9-7.9-5.9-.91-.8-1.18-1.65-.95-2.47.4-1.46 2.18-2.79 4.19-4.06.65-.41 1.88-.72 3.35-.77 2.09-.08 4.21.14 6.2.38 2.87.36 5.58.86 8.28 1.35 4.55.83 8.78 1.83 12.88 2.88 3.94 1.01 7.73 2.12 10.63 3.43 6.04-.33 12.32.09 18.46.12 6.98.04 13.97.16 20.96.35 10.81.29 21.62.66 32.43.95 8.44.22 16.85.11 25.29.4 3.11.11 6.21.16 9.32.24 2.62.07 5.42.16 7.77.63 1.03.21 1.6.56 1.67.91.95-.03 1.91-.04 2.88-.01 2.29.07 4.58.22 6.88.24 8.93.07 17.47-.61 25.99-1.18 14.2-.95 28.93-1.12 43.58-1.23 6.75-.05 13.56-.06 20.33.24 2.35-.81 5.93-1.34 9.58-.99 1.85.18 3.65.34 5.55.33 17.48-.03 35 .1 52.52.23 9.18.07 18.53.44 27.52-.07 2.17-.12 5.06-.39 5.44-1.19.42-.89-2.35-1.64-4.19-2.3-6.12-2.17-13.95-3.78-21.12-5.59-8.31-2.1-16.56-4.21-24.91-6.29-10.49-2.61-21.37-5.17-29.72-8.51-2.75-1.1-5.08-2.34-6.62-3.65-1.09.27-2.32.49-3.68.62-3.61.35-7.47.48-11.28.59-14.56.42-29.5-.63-43.57-2.26-20.81-2.4-40.15-6.01-59.78-9.32-3.76-.63-7.81-1.16-11.01-2.1-.25-.07-.48-.15-.71-.23-2.36.41-5.24.49-7.98.33-4.02-.23-7.79-.86-11.16-1.62-4.54-1.03-8.4-2.39-11.28-3.9-3.51-1.84-5.57-3.88-7.83-5.87-.74-.65-1.06-1.34-1.02-2.02.08-1.42 1.59-2.75 3.45-3.99.53-.35.97-.74 1.94-.99 1.31-.34 3.17-.37 4.84-.27 2.74.17 5.32.58 7.82.99 4.51.74 8.83 1.61 12.89 2.59 2.36.57 4.7 1.15 6.95 1.76 3.95 1.07 7.51 2.34 9.88 3.81.98.61 1.69 1.26 2.06 1.92 4.16-.32 8.61-.37 12.95-.24 3.85.12 7.64.41 11.41.72 7.54.63 15.25.88 22.87 1.34 22.01 1.33 44.07 3.08 64.7 6.19 4.89.76 8.26 2.23 10.36 3.79 1.82-.92 4.09-1.75 6.76-2.42 5.32-1.34 12.48-1.86 19.46-1.52 10.38.51 20.03 2.09 29.5 3.58 9.87 1.56 19.77 3.3 30.53 3.97 2.61.16 4.91.41 7.19.83 25.47 4.75 52.72 8.34 79.35 12.3 11.58 1.72 23.17 3.45 34.94 5.01 1.95.26-.4.74-2.91 1.25 6.94 1.24 13.91 2.46 21.06 3.53 3.9.11 7.78.32 11.6.68 2 .19 1.98.55.87 1.02 12.32 1.56 24.83 2.89 37.42 4.14-.4-.6-.77-1.2-1.06-1.8-.45-.95-2.09-2.14-.15-2.89 1.67-.64 4.77-.24 6.95 0 9.34 1.06 18.14 2.78 27.92 3.26 4.94.24 10.69.43 14.63-.57 2.54-.65 2.62-1.77 3.55-2.7 3.27-3.29 10.1-6.32 20.39-7.65 8.2-1.06 17.7-.66 26.39.25 13.67 1.42 24.3 5.14 30.11 9.26 1.84 1.31 2.48 2.72 3.93 4.06 5.57 5.15 7.17 10.67 4.55 15.86-.87 1.73-2.22 3.43-4.04 5.06-.86.77-1.71 1.55-2.7 2.31 1.38 1.14 2.45 2.31 3.13 3.51.03.06.05.11.08.17a61.77 19.53 1.48 0 1 72.99 1.11 61.77 19.53 1.48 0 1 25.13 20.77z" fill-opacity=".36" filter="url(#b)"/>
		<g transform="matrix(.99 -.14 .14 .99 1013.41 15.53)">
			<path d="m255.51 235.9c1.79-4.85 2-10.11 2.06-15.22.18-14.82-1.02-29.61-.94-44.43.07-12.36.49-24.91 3.87-36.87 1.46-5.16 3.96-9.94 6.86-14.47 4.46-6.95 6.04-15.4 5.89-23.55-.2-10.58-3.38-21.41-10.34-29.56-5.22-6.11-12.86-9.97-20.84-10.79-7.49-.77-15.17.34-22.2 3.04-8.17 3.14-15.04 9.19-19.67 16.58-6.31 10.07-9.17 21.88-10.57 33.56-1.22 10.2-1.42 20.49-1.65 30.75-.45 20.36-1.07 40.72-2.59 61.05-.48 6.42-.68 13.08 1.39 19.27 1.39 4.15 4.42 7.65 8.26 9.74 5.6 3.05 11.99 4.17 18.2 5.23 3.7.63 7.42 1.18 11.18 1.25 7.47.13 15.05.17 22.36-1.45 2.77-.61 5.88-1.04 7.98-3.07.31-.3.58-.66.75-1.07z" fill="#d7d7d7" stroke="#000"/>
			<path d="m-219.75-149.39a40 10 0 0 1 -25.99-.48" fill="none" stroke="#000" stroke-linecap="round" stroke-linejoin="round" stroke-width="6" transform="matrix(-1 -.06 .06 -1 0 0)"/>
			<path d="m-209.06-149.65a40 10 0 0 1 -36.39-2.1" fill="none" stroke="#000" stroke-linecap="round" stroke-linejoin="round" stroke-width="6" transform="matrix(-1 -.02 .02 -1 0 0)"/>
			<circle cx="180.68" cy="107.15" fill="#1e1e1e" r="21.21" stroke="#000" stroke-linecap="round" stroke-linejoin="round"/>
			<g transform="translate(235.03 26.87)">
				<path d="m-27.2 41.44a36.76 36.76 0 0 1 -17.63-41.95 36.76 36.76 0 0 1 36.67-26.94 36.76 36.76 0 0 1 34.77 29.36 36.76 36.76 0 0 1 -20.43 40.66" stroke="#000" stroke-linecap="round" stroke-linejoin="round" stroke-width="6"/>
				<circle cx="-27.58" cy="-17.37" fill="url(#a)" r="5.54"/>
			</g>
			<g stroke="#000">
				<path d="m235.63 66.64c1.14-3.94 2.06-8.01 2-12.14-.05-3.25-.92-6.39-1.3-9.6-.15-1.3-.14-2.62-.47-3.91-.52-2.02-1.81-3.81-3.53-5-2.27-1.56-5.07-2.16-7.79-2.23-1.25-.03-2.5.06-3.76.05-2.57-.03-5.21-.15-7.7.63-1.71.54-3.23 1.68-4.18 3.22-1.32 2.14-1.72 4.7-1.81 7.17-.08 2.18.09 4.36.16 6.54.04 1.3-.07 2.6 0 3.9.08 1.41.43 2.78.77 4.14 1.02 4.16 2.69 8.23 5.37 11.6 1.59 2.01 3.57 3.85 6.02 4.75 1.49.54 3.18.71 4.7.17 1.94-.69 3.74-1.74 5.43-2.91 1.82-1.27 3.62-2.66 4.99-4.42.46-.59.88-1.23 1.1-1.95z" fill="#2d1803"/>
				<path d="m243.97 309.6c.62 11.7.11 23.46 1.41 35.12.45 4.01 1.32 7.96 2.4 11.86 1.38 4.99 1.92 10.31.87 15.41-.63 3.03-1.89 6.1-4.34 8.11-1.99 1.63-4.71 2.08-7.2 1.66-3.2-.55-6.16-2.05-8.79-3.89-3.67-2.58-6.39-6.32-8.2-10.4-2.94-6.62-3.8-13.9-6.03-20.74-1.79-5.5-2.72-11.25-3.18-17.01-.49-6.19-.65-12.49.61-18.6.67-3.22 1.69-6.51 3.85-9.07 1.48-1.75 3.75-2.9 6.05-2.73 2.49.18 4.99.27 7.48.36 3.05.12 6.15.11 9.11.96 1.89.54 3.63 1.74 4.61 3.49.93 1.66 1.25 3.59 1.36 5.47z" fill="#d7d7d7"/>
				<path d="m151.99 402.54a22.95 5.32 0 0 1 -29.03-.82" fill="none" stroke-linecap="round" stroke-linejoin="round" stroke-width="2" transform="matrix(.97 -.24 .25 .97 0 0)"/>
				<path d="m152.12 397.18a22.95 5.32 0 0 1 -29.03-.82" fill="none" stroke-linecap="round" stroke-linejoin="round" stroke-width="2" transform="matrix(.97 -.24 .25 .97 0 0)"/>
				<path d="m153.09 391.23a22.95 5.32 0 0 1 -30.32-.61" fill="none" stroke-linecap="round" stroke-linejoin="round" stroke-width="2" transform="matrix(.97 -.24 .25 .97 0 0)"/>
				<path d="m154.61 382.62a22.95 5.32 0 0 1 -31.46-.41" fill="none" stroke-linecap="round" stroke-linejoin="round" stroke-width="2" transform="matrix(.97 -.24 .25 .97 0 0)"/>
				<path d="m242.87 477.15c3.32-1.45 6.18-3.94 7.99-7.09 1.98-3.44 2.62-7.53 2.26-11.45-.15-1.69-.4-3.38-.91-5-.4-1.29-1.32-2.44-2.58-2.97-1.63-.69-3.47-.57-5.16-.22-3.13.65-6.06 1.99-8.93 3.37-4.36 2.1-8.17 5.21-11.44 8.75-3.78 4.09-7.04 8.62-10.07 13.27-1.32 2.03-2.52 4.21-3.03 6.6-.32 1.48-.29 3.14.58 4.44.92 1.37 2.55 2.06 4.12 2.37 1.48.29 3.02.46 4.52.3 2.56-.26 4.94-1.4 7.14-2.67 4.74-2.72 8.96-6.28 13.79-8.86.56-.3 1.13-.58 1.71-.84z" fill="#a2a2a2"/>
				<path d="m224.22 414.41c-.75-13-3.63-25.8-3.85-38.84-.05-2.78-2.32-9.18.33-8.34 4.7 1.48 9.68 1.97 14.59 1.86 4.82-.11 9.56-1.14 14.24-2.4.41-.11.81-.65.93.14.82 5.66 1.06 11.4.64 17.11-.31 4.22-.71 8.43-.76 12.66-.11 10.35.75 20.67 1.72 30.96.54 5.7.43 11.47-.61 17.11-.66 3.55-1.47 7.08-2.66 10.48-1.86 5.31-7.15 9.2-12.79 9.35-3.02.08-6.07-1.22-7.99-3.59-2.31-2.86-3.02-6.69-2.86-10.28.54-12.08-.27-24.16-.92-36.22z" fill="#1e1e1e"/>
				<path d="m179.81 420.65c2.5-.19 5.03-.95 7-2.57 2.03-1.68 3.26-4.11 4.03-6.58.95-3.07 1.44-6.27 1.66-9.47.1-1.47-.08-3.06-1.03-4.25-.91-1.14-2.37-1.66-3.77-1.85-2.36-.32-4.75-.02-7.1.25-4.65.53-9.13 2.11-13.27 4.27-5.07 2.64-9.78 5.93-14.3 9.42-1.9 1.47-3.73 3.11-5 5.16-.8 1.29-1.34 2.86-.97 4.38.38 1.56 1.61 2.73 2.93 3.55 1.33.82 2.76 1.5 4.28 1.87 2.42.6 4.96.35 7.39-.08 5.46-.98 10.68-2.99 16.16-3.86.66-.1 1.32-.19 1.99-.24z" fill="#a2a2a2"/>
				<g stroke-width="1.27" transform="matrix(.77 .15 -.15 .78 69.71 18.41)">
					<path d="m243.97 309.6c.64 11.93.1 23.93 1.49 35.82.45 3.84 1.36 7.6 2.37 11.34 1.4 5.18 1.91 10.74.65 16-.74 3.07-2.24 6.19-5 7.92-2.48 1.56-5.65 1.49-8.36.62-4.83-1.56-9.2-4.64-12.16-8.8-3.45-4.85-5.07-10.67-6.46-16.38-.95-3.9-2.04-7.76-3.1-11.63-1.69-6.17-2.55-12.56-2.77-18.95-.2-5.78-.11-11.7 1.57-17.27.89-2.94 2.28-5.96 4.9-7.74 1.66-1.13 3.74-1.28 5.71-1.12 4.18.35 8.4.13 12.56.68 2.49.33 5.13 1.14 6.71 3.23 1.35 1.8 1.77 4.09 1.89 6.29z" fill="#d7d7d7" stroke-width="1.27"/>
					<g fill="none" stroke-linecap="round" stroke-linejoin="round" stroke-width="2.54" transform="matrix(.97 -.24 .25 .97 0 0)">
						<path d="m151.99 402.54a22.95 5.32 0 0 1 -29.03-.82"/>
						<path d="m152.12 397.18a22.95 5.32 0 0 1 -29.03-.82"/>
						<path d="m153.09 391.23a22.95 5.32 0 0 1 -30.32-.61"/>
						<path d="m154.61 382.62a22.95 5.32 0 0 1 -31.46-.41"/>
					</g>
				</g>
				<path d="m204.68 254.88c-2.49-1.32-5.42-1.9-8.2-1.3-3.18.68-5.9 2.81-7.78 5.42-2.59 3.6-3.89 8.16-3.45 12.58.31 3.16 1.86 6.07 4.02 8.42.8.87 1.85 1.39 2.61 2.29 2.84 3.34 7.01 5.37 11.32 5.97 4.54.63 9.36-.23 13.24-2.73 2.7-1.74 4.8-4.42 5.7-7.53.65-2.24.37-4.59.27-6.91-.16-3.81-1.48-7.56-3.67-10.68-1.79-2.55-4.3-4.7-7.32-5.63-2.19-.68-4.57-.6-6.74.09z" fill="#1e1e1e"/>
				<path d="m228.25 314.16c4.41.16 8.87.52 13.25-.17 2.47-.39 4.94-1.53 6.39-3.64 1.95-2.83 2.59-6.32 3.02-9.66 1.02-7.91 1.26-15.89 1.65-23.84.25-5.19.52-10.39 1.21-15.55 1.31-9.67 3.45-19.32 3.07-29.12-.22-5.67-1.52-11.56-5.15-16.08-3.43-4.28-8.69-6.57-13.92-7.84-11.21-2.71-22.49-5.68-34.06-6.08-5.48-.19-11.16.09-16.27 2.29-3.44 1.48-6.38 4.27-7.63 7.84-.95 2.71-1.36 5.57-1.72 8.4-1.09 8.67-1.26 17.51.08 26.15.54 3.49.98 7.13 2.69 10.25.52.96 1.24 2.14 2.51 2.13 3.18-.04 6.35-.35 9.53-.14 3.87.26 7.95 1.19 10.9 3.88 2.69 2.45 3.7 6.19 3.81 9.74.24 8.17-.06 16.36.66 24.5.33 3.66.69 7.48 2.52 10.75 1.38 2.47 3.95 4 6.61 4.76 3.52 1.01 7.21 1.23 10.85 1.43z" fill="#1e1e1e"/>
				<path d="m178.77 367.31c1.43-7.69 1.49-15.55 2.8-23.26.55-3.23-.46-10.8 2.54-9.47 3.79 1.67 7.85 2.67 11.93 3.28 4.28.64 8.61.49 12.95.43.4-.01.91-.42.86.33-.3 3.88-1.09 7.73-2.38 11.4-1.02 2.9-2.16 5.76-2.97 8.73-1.91 6.98-3.04 14.15-4.01 21.32-.52 3.86-1.57 7.66-3.29 11.16-1.27 2.59-2.69 5.13-4.46 7.4-2.16 2.77-5.61 4.3-9.04 4.66-2.83.29-5.86-.17-8.21-1.86-1.68-1.2-2.67-3.19-2.84-5.24-.16-1.87.41-3.68.94-5.44 2.33-7.66 3.7-15.57 5.19-23.43z" fill="#1e1e1e"/>
				<path d="m242.73 176.34c3.76.39 7.57.77 11.16 2.02 2.13.74 4.23 1.99 5.35 4.02 1.24 2.25 1.32 4.91 1.21 7.41-.04.94.7 2.58-.22 2.82-3.71.98-7.58 1.34-11.4.95-4.06-.42-8.05-1.36-12.12-1.73-1.6-.15-3.21-.3-4.82-.11-3.27.38-6.3 1.93-8.81 4.03-4.22 3.53-7.02 8.55-11.59 11.66-3.13 2.13-6.29 4.24-9.63 6.03-2.9 1.55-5.93 3.03-9.21 3.51-1.93.28-4.07.02-5.59-1.31-.94-.82-2.41-1.97-1.96-3.12 1.17-2.99 1.01-6.29.62-9.42-.76-6.06-2.76-11.91-3.23-18.01-.19-2.48-.23-5.16 1.03-7.39.7-1.24 1.8-2.41 3.2-2.7 4.62-.99 9.37-1.23 14.08-1.31 10.41-.17 20.82.41 31.18 1.42 3.59.35 7.18.76 10.76 1.25z" fill="#1e1e1e"/>
				<path d="m175.78 157.58c-3.71 3.52-7.5 7.04-11.91 9.68-3.25 1.95-6.95 3.22-10.76 3.37-2.47.09-4.98-.14-7.36-.82-2.91-.83-5.4-2.79-7.22-5.18-2.61-3.44-4.18-7.51-5.63-11.53-.83-2.3-1.75-4.57-2.61-6.86-.65-1.73-.6-3.75.33-5.38 1.19-2.08 3.35-3.41 5.54-4.22 2.93-1.08 6.13-1.45 9.23-1 1.37.2 2.64.76 3.87 1.39 1.85.95 3.51 2.22 5.32 3.22.92.51 2.07.94 3.08.44 1.21-.61 1.98-1.8 2.62-2.94 1.73-3.09 3.08-6.38 4.24-9.72.92-2.64 3.21-4.59 5.73-5.65 2.73-1.15 5.97-1.37 8.71-.1 2.02.93 3.44 2.8 4.22 4.86 1.21 3.19 1.46 6.7.96 10.06-.69 4.65-2.25 9.11-3.96 13.46-.69 1.77-1.67 3.42-2.77 4.96-.5.69-1.02 1.38-1.63 1.97z" fill="#d7d7d7"/>
				<path d="m122.87 140.92c.91 2.48 3.17 4.16 5.49 5.22 4.06 1.85 8.62 2.47 13.04 2.08 3.8-.33 7.69-1.42 10.66-3.91 2.1-1.76 3.39-4.41 3.54-7.15.2-3.86-1.42-7.5-3.16-10.86-1.6-3.1-2.28-6.56-2.64-10-.44-4.2-.79-8.43-1.66-12.57-.83-3.99-1.93-7.96-3.72-11.65-2.31-4.75-5.35-9.23-9.39-12.67-2.79-2.37-6.22-4.26-9.95-4.39-2.38-.08-4.86.46-6.79 1.83-2.49 1.77-3.78 4.74-4.43 7.63-1.14 5.02-1.01 10.24-.53 15.33.9 9.5 2.95 18.86 5.49 28.04 1.22 4.4 2.53 8.77 4.05 13.07z" fill="#1e1e1e"/>
				<path d="m253.75 148.49c1.72 1.5 2.34 3.83 2.89 5.96 1.18 4.53 1.34 9.29 2.82 13.74.34 1.01 1.08 3.1 2.36 2.3 1.46-.91 2.26-2.55 3.02-4.03 4.65-9.07 6.27-19.24 8.11-29.15 1.74-9.35 3.86-18.8 8.57-27.19 1.27-2.27 3.05-4.2 4.48-6.36 3.63-5.46 5.41-12.05 5.55-18.56.12-5.43-.92-11.14-4.24-15.58-2.49-3.33-6.52-5.25-10.63-5.56-8.84-.67-17.64.93-26.21 2.91-7.12 1.65-14.27 3.2-21.53 4.2-11.41 1.57-22.52 5.14-32.79 10.3-2.48 1.25-5.04 2.39-7.18 4.2-4.97 4.22-9.36 9.11-13.24 14.34-3.4 4.59-6.82 9.36-8.57 14.84-.58 1.84-1.3 3.85-.73 5.73.43 1.43 2.11 1.61 3.36 1.79 2.54.37 5.07 1.41 6.76 3.42 2.68 3.2 3.65 7.42 4.24 11.45.75 5.1.15 10.29.64 15.4.1 1.1.01 3.15 1.36 3.15 1.45-.01 2.57-1.17 3.53-2.12 4.6-4.57 8.3-10 13.28-14.18 1.38-1.16 3.05-1.91 4.82-2.31 10.72-2.45 22.04-1.15 32.34 2.45 6.04 2.11 11.88 4.97 16.98 8.87z" fill="#1e1e1e"/>
				<path d="m260.62 124.22c1.35.03 2.5-.87 3.49-1.68 3.5-2.86 6.42-6.36 9.12-9.97 4.75-6.35 8.95-13.16 12.02-20.48 1.64-3.9 2.54-8.26 1.79-12.48-.68-3.82-3.02-7.1-5.78-9.73-3.89-3.72-8.41-6.72-12.21-10.54-8.78-8.85-15.42-19.62-24.74-27.96-4.48-4.01-10.35-5.9-15.43-9.17-2.49-1.6-5.49-2.16-8.39-2.34-3.66-.23-7.47-.02-10.87 1.44-1.73.74-3.55 2.09-3.68 4.11-.14 2.13.47 5.63 2.5 5.53 4.18-.21 8.38 1.13 11.73 3.64 4.64 3.48 7.73 8.49 10.75 13.34 1.68 2.69 3.58 5.23 5.43 7.82 4.74 6.65 11.08 12.06 15.17 19.19 2.16 3.77 3.61 8.24 2.77 12.56-.19.96-.23 1.92-.19 2.91.31 7.94.51 15.94 1.99 23.76.55 2.88.97 5.92 2.55 8.44.46.73 1.1 1.5 2.01 1.62z" fill="#d7d7d7"/>
				<path d="m279.33 69.42c-3.81 1.32-7.98 1.23-11.86.28-4.9-1.2-9.46-3.64-13.32-6.88-1.67-1.4-3.2-2.99-4.44-4.78-2.09-3.03-3.65-6.48-4.28-10.12-.46-2.61-.47-5.41.65-7.85.43-.94.99-1.86 1.76-2.55.52-.46 1.27-.59 1.93-.37 1.08.36 1.93 1.17 2.69 1.98 2.31 2.49 4.01 5.47 6.18 8.07 4.47 5.38 9.07 10.7 14.28 15.37 1.41 1.27 3.04 2.26 4.54 3.41.82.62 1.67 1.23 2.31 2.05.23.29.42.75.12 1.07-.15.16-.35.25-.55.32z" fill="#1e1e1e"/>
				<path d="m251.36 74.8c1.46 2.96 2.88 5.98 4.85 8.65 1.41 1.91 3.2 3.51 5.2 4.79 1.85 1.19 3.89 2.12 6.06 2.55" fill="none" stroke-linecap="round"/>
				<path d="m226.09 35.57c-4.84 0-9.72.28-14.52-.49-3.14-.51-6.26-1.53-8.84-3.44-1.04-.77-2.3-1.49-2.8-2.69-.78-1.9-1.19-4.06-.64-6.09.5-1.82 1.84-3.3 3.41-4.29 2.25-1.42 4.88-2.11 7.49-2.43 3.63-.45 7.35-.28 10.92.56 1.84.43 3.57 1.19 5.28 2.02 1.7.83 2.99 2.37 3.66 4.13.97 2.52.9 5.39-.03 7.91-.73 1.98-2.07 3.8-3.95 4.83z" fill="#2d1803"/>
			</g>
		</g>
		<g transform="matrix(.99 -.14 .14 .99 1009.47 3.15)">
			<g stroke="#000">
				<path d="m-58.46 57.63c4.74-6.35 11.39-11.16 18.7-14.11 2.96-1.2 6.03-2.2 9.18-2.72 4.09-.68 8.39-.47 12.27 1.06 2.81 1.1 5.27 3.05 6.99 5.54 1.21 1.76 2.39 3.66 2.65 5.82.1.79-.07 1.57-.16 2.35-.6 5.17-3.67 9.91-7.94 12.85-2.1 1.45-4.51 2.38-6.96 3.04-7.42 2.01-15.49 1.07-22.42-2.17-2.78-1.3-5.39-3-7.61-5.14-1.94-1.87-3.57-4.07-4.71-6.52z" fill="#1e1e1e"/>
				<g>
					<path d="m-49.65 181.37c2.73-15.85 2.93-32.03 1.6-48.04-1.47-17.56-4.93-35.1-3.51-52.78.49-6.03 1.22-12.1 2.99-17.9 2.87-9.47 9.81-17.41 18.41-22.18 12.79-7.09 29.16-7.79 42.26-1.04 7.48 3.85 13.3 10.44 16.86 18.04 5.38 11.5 6.59 24.41 6.44 36.95-.25 20.5-3.25 40.91-2.43 61.45.29 7.22 1.52 14.35 2.65 21.49.77 4.83 1.66 9.78.98 14.68-.32 2.28-1.49 4.69-3.78 5.52-3.13 1.13-6.53.66-9.73.18-8.23-1.25-16.44-2.7-24.76-3.15-5.9-.31-11.83-.03-17.72-.59-7.97-.76-16.15-2.06-23.23-5.92-2.52-1.37-5.4-2.79-6.73-5.43-.2-.39-.36-.84-.29-1.28z" fill="#d7d7d7"/>
					<g fill="none" stroke-linecap="round" stroke-linejoin="round" stroke-width="6">
						<path d="m-5.52 151.89a26.04 3.91 0 0 1 -21.81-1.55"/>
						<path d="m-6.38 141.42a26.04 3.91 0 0 1 -21.81-1.55"/>
						<path d="m-7.49 132.03a26.04 3.91 0 0 1 -21.82-1.55"/>
						<path d="m-14.09 149.42a20 10 0 0 1 -14.85-.18" transform="matrix(.96 -.29 .29 .96 0 0)"/>
						<path d="m-12.02 139.69a20 10 0 0 1 -14.85-.18" transform="matrix(.96 -.29 .29 .96 0 0)"/>
						<path d="m-9.97 129.88a20 10 0 0 1 -14.85-.18" transform="matrix(.96 -.29 .29 .96 0 0)"/>
					</g>
				</g>
				<path d="m-24.7 42.7a36.76 36.76 0 0 1 -20.85-40.1 36.76 36.76 0 0 1 33.81-30 36.76 36.76 0 0 1 37.34 25.47 36.76 36.76 0 0 1 -15.6 42.43" stroke-linecap="round" stroke-linejoin="round" stroke-width="6"/>
				<path d="m-11.15 124.94c5.26-4.19 11.46-7.59 18.23-8.33 3.93-.43 7.85.76 11.24 2.84 6.09 3.74 11.78 8.18 18.22 11.29 1.61.78 3.4 2.34 5.16 1.67 1.51-.58 1.47-2.52 1.5-3.87.12-5.78-1.09-11.62.16-17.33.63-2.88 1.53-6.19 4.19-7.82 1.71-1.06 3.74-.49 5.62-.49 6.63 0 13.56-2.14 18.17-7.13 3.68-3.98 5.01-9.49 5.26-14.82.4-8.39-3.99-16.35-10.16-21.86-1.93-1.74-4.34-2.87-6.44-4.42-10.75-7.91-24.2-12.27-37.53-11.81-3.39.12-6.89.13-10.09 1.26-4.52 1.6-7.5 5.54-10.89 8.69-2.19 2.04-4.97 3.31-7.9 3.85-7.09 1.31-14.36.04-21.29-1.69-3.56-.89-6.87-2.62-10.52-3.19-7.48-1.17-15.11-.58-22.53.55-5.38.82-10.42 3.09-15.14 5.72-6.93 3.86-13.05 9.28-17.26 16.05-2.96 4.77-5.79 9.7-7.57 15.01-.48 1.44-1.62 3.24-.66 4.57s2.81 1.35 4.28 1.48c8.56.77 17.34 2.45 24.63 7.28 4.92 3.26 8.48 8.09 11.47 13.12 3.8 6.4 6.93 13.16 10.06 19.91 1.35 2.91 2.4 6.01 4.32 8.62 1.01 1.37 2.88 1.56 4.41 1.05 3.45-1.16 6.63-2.97 9.83-4.66 7.79-4.13 14.39-10.06 21.23-15.53z" fill="#1e1e1e"/>
				<path d="m-75.1 293c1.7-4.56 2.42-9.46 4.38-13.92.55-1.25 1.16-4.35 2.2-3.44 2.9 2.52 5.13 5.69 7.96 8.29 1.62 1.49 3.54 2.67 5.64 3.37 4.3 1.44 8.91 1.58 13.41 1.37 1.78-.09 5.67-2.15 5.33-.4-.87 4.52-2.56 8.83-4.32 13.07-3.36 8.09-6.84 16.19-11.63 23.57-2.87 4.42-5.94 8.8-7.74 13.81-.46 1.29-.69 2.64-1.05 3.96-.84 3.02-3.22 5.4-5.98 6.78-2.03 1.01-4.26 1.75-6.53 1.74-2.89-.02-5.54-1.58-7.59-3.52-3.41-3.24-5.7-7.57-6.78-12.13-.71-2.98-.72-6.1-.15-9.12 1.24-6.52 3.87-12.67 6.54-18.71 2.16-4.88 4.42-9.72 6.31-14.71z" fill="#d7d7d7"/>
				<path d="m63.7 296a22.95 15.83 0 0 1 -17.83 4.65 22.95 15.83 0 0 1 -16.77-6.25" fill="none" stroke-linecap="round" stroke-linejoin="round" stroke-width="2" transform="matrix(.94 .34 -.34 .94 0 0)"/>
				<path d="m63.32 302.68a22.95 15.83 0 0 1 -17.46 4.28 22.95 15.83 0 0 1 -16.35-6.01" fill="none" stroke-linecap="round" stroke-linejoin="round" stroke-width="2" transform="matrix(.94 .34 -.34 .94 0 0)"/>
				<path d="m62.84 309.41a22.95 15.83 0 0 1 -17.62 3.82 22.95 15.83 0 0 1 -16-6.37" fill="none" stroke-linecap="round" stroke-linejoin="round" stroke-width="2" transform="matrix(.94 .34 -.34 .94 0 0)"/>
				<path d="m-68.88 271.98c2.68-11.74 4.9-23.58 7.11-35.42 2.94-15.77 5.65-31.58 8.44-47.37.54-3.03-.37-9.11 2.73-8.8 14.7 1.44 29.4 3 44.17 3.35 4.81.12 9.64-.12 14.38-.98 8.49-1.53 16.83-3.97 24.75-7.37 1.78-.76 5.16-4.47 5.23-2.53.27 7.41.86 14.81 1.46 22.2 1.38 17 1.94 34.14 4.98 50.92.27 1.51.22 2.92-.05 4.46-1.12 6.36-.12 12.82.55 19.17.64 6.09 1.39 12.33.06 18.38-.9 4.07-3.38 7.77-6.95 9.99-4.44 2.76-9.99 3.74-15.09 2.51-4.75-1.15-8.53-4.67-11.13-8.68-4.2-6.48-6.47-13.95-8.89-21.22-1.93-5.79-3.95-11.55-5.93-17.32-1.7-4.98-2.9-10.22-5.48-14.83-.78-1.39-1.53-3.34-3.23-3.6-1.53-.23-2.63 1.23-3.32 2.37-2.85 4.72-4.21 10.12-6.07 15.27-3.55 9.82-7.1 19.64-10.93 29.35-.41 1.05-.52 2.14-.6 3.27-.18 2.36-2.12 4.15-4.23 4.95-4.14 1.57-8.71 1.33-13.01.68-4.7-.71-9.37-2.26-13.2-5.17-3.38-2.57-6.1-6.49-6.09-10.88 0-.91.12-1.82.34-2.7z" fill="#1e1e1e"/>
				<path d="m-47.65 151.55c9.6 2.99 18.83 7.07 28.52 9.8 6.95 1.96 14.24 3.18 21.47 2.44 7.39-.75 14.38-3.44 21.22-6.2 3.65-1.47 11.32-8.22 11-4.29-.4 4.88-1.96 9.6-4 14.02-3.16 6.88-7.47 13.32-13.11 18.41-4.32 3.9-9.63 7.05-15.49 7.71-6.28.71-12.63-.84-18.32-3.45-7.93-3.63-14.99-9.08-20.76-15.6-3.85-4.36-7.38-9.17-9.38-14.67-.94-2.59-1.61-5.41-1.14-8.18z" fill="#1e1e1e"/>
				<path d="m-88.44 435.93c-3.11-2.37-6.35-4.65-8.92-7.64-1.79-2.09-3.27-4.48-4.11-7.09-.71-2.21-.98-4.55-.97-6.87 0-2.55.26-5.14 1.21-7.52.59-1.48 1.51-2.91 2.94-3.7 1.05-.57 2.31-.61 3.45-.34 1.89.45 3.58 1.43 5.34 2.21.89.4 1.82.67 2.76.92 2.36.63 4.4 2.15 5.95 4 2.11 2.51 3.46 5.56 4.53 8.64.99 2.86 1.88 5.76 2.39 8.75.3 1.77.61 3.55.63 5.35.02 1.24-.06 2.54-.65 3.66-.41.79-1.23 1.3-2.11 1.44-2.71.42-5.5.68-8.21.1-1.53-.33-3-.94-4.25-1.89z" fill="#a2a2a2"/>
				<path d="m-99.38 406.82c-.35-6.1 1.04-12.09 1.92-18.08 1.09-7.36 2.71-14.63 4.13-21.94 1.54-7.88 2.64-15.82 3.93-23.75.47-2.9.37-5.85.59-8.77.15-2-.18-7.68.85-5.96 2.1 3.55 3.87 7.38 6.82 10.34 1.7 1.71 3.89 2.83 6.11 3.7 4.02 1.58 8.41 1.77 12.68 1.75.94-.01 1.86.62 2.06 1.58.34 1.57-.1 3.17-.55 4.67-.53 1.77-1.11 3.53-1.59 5.32-1.3 4.85-3.32 9.47-4.74 14.29-1.82 6.17-3.49 12.39-5.31 18.56-1.17 3.99-2.46 7.95-3.9 11.85-1.29 3.5-1.88 7.29-3.86 10.5-1.17 1.89-3.08 3.32-5.26 3.8-2.93.65-6.05.33-8.81-.68-1.35-.49-2.35-1.62-3.17-2.75-.94-1.31-1.77-2.8-1.91-4.44z" fill="#1e1e1e"/>
				<path d="m23.27 404.21c-3.09-2.36-6.31-4.62-8.87-7.59-2.1-2.44-3.7-5.33-4.58-8.42-.65-2.29-.96-4.74-.51-7.1.33-1.72 1.18-3.38 2.57-4.47.87-.68 1.87-1.16 2.89-1.57 2.97-1.21 6.28-1.66 9.45-1.06 2.2.42 4.2 1.6 5.78 3.17 2.13 2.13 3.64 4.81 4.71 7.59.62 1.59 1.15 3.21 1.67 4.84.88 2.8 1.52 5.68 1.87 8.6.2 1.62.37 3.28.09 4.9-.18.99-.63 2.01-1.53 2.54-.67.4-1.46.43-2.2.53-2.62.35-5.35.47-7.92-.27-1.23-.35-2.4-.91-3.41-1.68z" fill="#a2a2a2"/>
				<path d="m36.75 308.27c1.14 13.19-.47 26.43-2.84 39.41-.82 4.49-2.03 8.92-2.54 13.47-.25 2.27-.54 4.54-1.17 6.75-1.16 4.11-3.26 8.14-6.7 10.78-2.06 1.58-4.76 2.58-7.37 1.99-2.21-.5-3.88-2.31-4.76-4.35-1-2.3-1.07-4.83-1.39-7.28-1.71-12.74-4.01-25.49-3.84-38.39.12-8.72 1.45-17.61 5.36-25.48 1.02-2.06 2.08-4.13 3.5-5.95 1.49-1.91 3.89-2.96 6.29-3.03 3.54-.11 7 1.27 9.8 3.36 2.81 2.1 5.3 5.11 5.65 8.72z" fill="#1e1e1e"/>
			</g>
			<circle cx="-27.58" cy="-17.37" fill="url(#a)" r="5.54"/>
			<path d="m-95.32 149.52c1.17-9.98 2.49-19.96 4.7-29.77 1.04-4.63 2.15-9.29 4.04-13.67.81-1.88 1.86-3.67 3.3-5.14 2.96-3.03 6.9-5.27 11.19-5.61 3.3-.26 6.76.86 9.08 3.28 2.1 2.19 2.96 5.32 2.79 8.31-.19 3.49-1.66 6.76-3.34 9.78-3.28 5.92-5.49 12.4-6.61 19.08-.67 4-.81 8.06-1.35 12.07-.37 2.77-1.05 5.65-2.9 7.83-1.32 1.55-3.01 2.75-4.82 3.65-3 1.5-6.61 1.87-9.79.69-2.79-1.04-5.05-3.39-5.93-6.25-.42-1.38-.53-2.85-.36-4.28z" fill="#d7d7d7" stroke="#000"/>
			<path d="m-76.49 200c.52 4.81 1.32 9.63 1.07 14.49-.17 3.17-.85 6.39-2.48 9.15-.66 1.12-1.24 2.45-2.38 3.07-1.81.98-3.91 1.62-5.98 1.28-1.86-.3-3.48-1.47-4.63-2.93-1.65-2.08-2.62-4.62-3.22-7.19-.83-3.57-1.07-7.28-.62-10.92.23-1.87.8-3.68 1.44-5.46s2.04-3.22 3.71-4.08c2.4-1.24 5.26-1.47 7.86-.82 2.05.51 4 1.65 5.22 3.41z" fill="#2d1803" stroke="#000"/>
			<path d="m-71.13 151.62c-1.08 8.34-1.85 16.73-2.07 25.14-.13 4.91.02 9.83-.08 14.75-.07 3.61-1.6 7.14-4.13 9.72-2.8 2.85-6.73 4.67-10.76 4.65-2.47-.02-4.99-.95-6.66-2.84-1.4-1.59-1.96-3.71-2.21-5.77-1.16-9.42-2.1-18.92-1.66-28.43.32-6.95.88-13.97 2.77-20.67.17-.6.35-1.45 1.05-1.55.74-.11 1.42.3 2.04.65 1.91 1.06 3.87 2.03 5.97 2.67 2.63.79 5.41.94 8.14.7 1.84-.16 3.64-.69 5.48-.79.64-.04 1.46-.14 1.89.43.29.38.27.9.22 1.35z" fill="#1e1e1e" stroke="#000"/>
			<path d="m-22.03 37.84c-1.18-3.58-2.17-7.29-2.21-11.09-.02-2.28.46-4.53.93-6.75.35-1.67.54-3.37.69-5.07.17-1.95 1.07-3.83 2.49-5.19 1.87-1.78 4.39-2.7 6.89-3.14 1.95-.34 3.94-.3 5.91-.27 3.21.05 6.48-.26 9.64.49 1.91.45 3.72 1.46 4.92 3.05 1.48 1.97 1.97 4.48 2.1 6.89.11 2.11-.09 4.21-.16 6.31-.04 1.26.06 2.51 0 3.77-.07 1.35-.46 2.66-.81 3.96-1.19 4.3-3.23 8.45-6.33 11.69-1.96 2.05-4.41 3.79-7.22 4.39-1.4.3-2.88.3-4.26-.14-2.22-.71-4.3-1.78-6.27-3.02-1.86-1.17-3.71-2.42-5.15-4.09-.46-.53-.9-1.11-1.13-1.78z" fill="#2d1803" stroke="#000"/>
		</g>
		<g fill="none" stroke-linecap="round" transform="matrix(.99 .13 -.13 .99 86.59 -141.33)">
			<g transform="translate(-19.32 5.18)">
				<path d="m1103.38 503.86c46.28 53.1 68.84 126.14 60.55 196.09-8.22 69.38-44.51 132.01-63.36 199.28-27.71 98.88-15.95 208.24 32.16 298.96" stroke="#e3c881" stroke-width="20"/>
				<path d="m1095.38 503.86c46.28 53.1 68.84 126.14 60.55 196.09-8.22 69.38-44.51 132.01-63.36 199.28-27.71 98.88-15.95 208.24 32.16 298.96" stroke="#f1e4c2" stroke-width="8"/>
			</g>
			<path d="m1103.38 503.86c46.28 53.1 68.84 126.14 60.55 196.09-8.22 69.38-44.51 132.01-63.36 199.28-27.71 98.88-15.95 208.24 32.16 298.96" stroke="#e3c881" stroke-width="20"/>
			<path d="m1095.38 503.86c46.28 53.1 68.84 126.14 60.55 196.09-8.22 69.38-44.51 132.01-63.36 199.28-27.71 98.88-15.95 208.24 32.16 298.96" stroke="#f1e4c2" stroke-width="8"/>
			<g transform="translate(19.32 -5.18)">
				<path d="m1103.38 503.86c46.28 53.1 68.84 126.14 60.55 196.09-8.22 69.38-44.51 132.01-63.36 199.28-27.71 98.88-15.95 208.24 32.16 298.96" stroke="#e3c881" stroke-width="20"/>
				<path d="m1095.38 503.86c46.28 53.1 68.84 126.14 60.55 196.09-8.22 69.38-44.51 132.01-63.36 199.28-27.71 98.88-15.95 208.24 32.16 298.96" stroke="#f1e4c2" stroke-width="8"/>
			</g>
			<g transform="translate(38.64 -10.35)">
				<path d="m1103.38 503.86c46.28 53.1 68.84 126.14 60.55 196.09-8.22 69.38-44.51 132.01-63.36 199.28-27.71 98.88-15.95 208.24 32.16 298.96" stroke="#e3c881" stroke-width="20"/>
				<path d="m1095.38 503.86c46.28 53.1 68.84 126.14 60.55 196.09-8.22 69.38-44.51 132.01-63.36 199.28-27.71 98.88-15.95 208.24 32.16 298.96" stroke="#f1e4c2" stroke-width="8"/>
			</g>
			<g transform="translate(57.96 -15.53)">
				<path d="m1103.38 503.86c46.28 53.1 68.84 126.14 60.55 196.09-8.22 69.38-44.51 132.01-63.36 199.28-27.71 98.88-15.95 208.24 32.16 298.96" stroke="#e3c881" stroke-width="20"/>
				<path d="m1095.38 503.86c46.28 53.1 68.84 126.14 60.55 196.09-8.22 69.38-44.51 132.01-63.36 199.28-27.71 98.88-15.95 208.24 32.16 298.96" stroke="#f1e4c2" stroke-width="8"/>
			</g>
			<g transform="translate(77.28 -20.7)">
				<path d="m1103.38 503.86c46.28 53.1 68.84 126.14 60.55 196.09-8.22 69.38-44.51 132.01-63.36 199.28-27.71 98.88-15.95 208.24 32.16 298.96" stroke="#e3c881" stroke-width="20"/>
				<path d="m1095.38 503.86c46.28 53.1 68.84 126.14 60.55 196.09-8.22 69.38-44.51 132.01-63.36 199.28-27.71 98.88-15.95 208.24 32.16 298.96" stroke="#f1e4c2" stroke-width="8"/>
			</g>
			<g transform="translate(96.6 -25.88)">
				<path d="m1103.38 503.86c46.28 53.1 68.84 126.14 60.55 196.09-8.22 69.38-44.51 132.01-63.36 199.28-27.71 98.88-15.95 208.24 32.16 298.96" stroke="#e3c881" stroke-width="20"/>
				<path d="m1095.38 503.86c46.28 53.1 68.84 126.14 60.55 196.09-8.22 69.38-44.51 132.01-63.36 199.28-27.71 98.88-15.95 208.24 32.16 298.96" stroke="#f1e4c2" stroke-width="8"/>
			</g>
			<g transform="translate(115.91 -31.06)">
				<path d="m1103.38 503.86c46.28 53.1 68.84 126.14 60.55 196.09-8.22 69.38-44.51 132.01-63.36 199.28-27.71 98.88-15.95 208.24 32.16 298.96" stroke="#e3c881" stroke-width="20"/>
				<path d="m1095.38 503.86c46.28 53.1 68.84 126.14 60.55 196.09-8.22 69.38-44.51 132.01-63.36 199.28-27.71 98.88-15.95 208.24 32.16 298.96" stroke="#f1e4c2" stroke-width="8"/>
			</g>
			<g transform="translate(135.23 -36.23)">
				<path d="m1103.38 503.86c46.28 53.1 68.84 126.14 60.55 196.09-8.22 69.38-44.51 132.01-63.36 199.28-27.71 98.88-15.95 208.24 32.16 298.96" stroke="#e3c881" stroke-width="20"/>
				<path d="m1095.38 503.86c46.28 53.1 68.84 126.14 60.55 196.09-8.22 69.38-44.51 132.01-63.36 199.28-27.71 98.88-15.95 208.24 32.16 298.96" stroke="#f1e4c2" stroke-width="8"/>
			</g>
		</g>
		<g transform="matrix(.99 -.13 .13 .99 1014.11 14.42)">
			<path d="m192 485.27c0-12 8-256 10-268 .49-2.94.89-7.28-2-8-16-4-62.51-12.63-68-14-8-2-12-10-14-20-.78-3.92 4.78-20.19 6-24 16-50 32-94 48-138 7.27-20-47.97-36-76-36s-83.27 16-76 36c16 44 32 88 48 138 1.22 3.81 6.78 20.08 6 24-2 10-6 18-14 20-5.49 1.37-52 10-68 14-2.89.72-2.49 5.06-2 8 2 12 10 256 10 268s20 12 20 12v-168c0-4 6-4 6-4s6 0 6 4v164s0 4 4 4 4-4 4-4v-164c0-4 6-4 6-4s6 0 6 4v164s0 4 4 4 4-4 4-4v-164c0-4 6-4 6-4s6 0 6 4v164s0 4 4 4 4-4 4-4v-164c0-4 6-4 6-4s6 0 6 4v164s0 4 4 4 4-4 4-4v-164c0-4 6-4 6-4s6 0 6 4v164s0 4 4 4 4-4 4-4v-164c0-4 6-4 6-4s6 0 6 4v164s0 4 4 4 4-4 4-4v-164c0-4 6-4 6-4s6 0 6 4v164s0 4 4 4 4-4 4-4v-164c0-4 6-4 6-4s6 0 6 4v168s20 0 20-12z" stroke="#000"/>
			<g fill="none" stroke="#fff" stroke-width="4">
				<path d="m108.83 302.53a14 16 0 0 1 -18.34-2.7 14 16 0 0 1 0-21.13 14 16 0 0 1 18.34-2.7" stroke-linecap="square"/>
				<g transform="translate(2)">
					<path d="m60 305.27v-22s0-10 10-10 10 10 10 10v22"/>
					<path d="m61 287.27h21"/>
				</g>
				<path d="m130.83 302.53a14 16 0 0 1 -18.34-2.7 14 16 0 0 1 0-21.13 14 16 0 0 1 18.34-2.7" stroke-linecap="square"/>
				<path d="m108 289.27h20"/>
			</g>
		</g>
		<rect fill-opacity=".36" filter="url(#d)" height="243.43" rx="5.52" ry="25.37" transform="matrix(.72 -.04 -.71 .15 302.05 154.65)" width="568.95" x="4570.6" y="3290.8"/>
	</g>
</svg>
