<svg height="152.35" viewBox="0 0 861.73 152.35" width="861.73" xmlns="http://www.w3.org/2000/svg" xmlns:xlink="http://www.w3.org/1999/xlink">
	<linearGradient id="a" gradientUnits="userSpaceOnUse" x1="386.69" x2="386.69" xlink:href="#c" y1="109.16" y2="164.09"/>
	<linearGradient id="b" gradientUnits="userSpaceOnUse" x1="368.37" x2="427.01" xlink:href="#c" y1="76.32" y2="138.35"/>
	<linearGradient id="c">
		<stop offset="0" stop-color="#d8b558"/>
		<stop offset="1" stop-color="#ecd9ad" stop-opacity="0"/>
	</linearGradient>
	<linearGradient id="d" gradientUnits="userSpaceOnUse" x1="-174.58" x2="-110.76" xlink:href="#c" y1="111.76" y2="150.82"/>
	<linearGradient id="e" gradientUnits="userSpaceOnUse" x1="140.62" x2="160.37" xlink:href="#c" y1="57.05" y2="111.79"/>
	<linearGradient id="f" gradientUnits="userSpaceOnUse" x1="128" x2="128" xlink:href="#c" y1="109.27" y2="165.27"/>
	<linearGradient id="g" gradientUnits="userSpaceOnUse" x1="-152" x2="-152" xlink:href="#c" y1="125.27" y2="173.27"/>
	<linearGradient id="h" gradientUnits="userSpaceOnUse" x1="709.73" x2="709.73" xlink:href="#c" y1="125.27" y2="173.27"/>
	<linearGradient id="i" gradientUnits="userSpaceOnUse" x1="687.15" x2="750.97" xlink:href="#c" y1="111.76" y2="150.82"/>
	<g transform="translate(275.61 -57.07)">
		<g transform="translate(-861.73)">
			<path d="m31.99 194.4s161.45-52.06 227.47-83.44 109.1-50.36 125.64-50.75c14.06-.33 16.45 3.04 29.8 5.63 14.82 2.88 29.06 1.81 46.04 14.98 28.34 21.97 103.83 45.14 156.14 63.87 49.23 17.63 110.75 33.23 110.75 33.23l-28.39 79.98-644.1-11.24z" fill="#ecd9ad" stroke="url(#a)"/>
			<path d="m337.93 154.72c-6.73-2.38-12.34-10.18-2.81-12.08s14.82-4.21 16.08-12.64c1.26-8.44-.65-4.07 10.26-15.37 10.91-11.29 6.25-25.83 6.91-38.32s3.83-12.72 9.24-14.95c2.36-.97 7.48-1.15 7.48-1.15 14.06-.33 16.45 3.04 29.8 5.63 14.82 2.88 29.06 1.81 46.04 14.98 28.34 21.97 103.83 45.14 156.14 63.87 49.23 17.63 110.75 33.23 110.75 33.23l-28.39 79.98z" fill="url(#b)"/>
		</g>
		<path d="m-369.9 163.95s64.88-23.71 84.17-27.14c14.18-2.52 34.52-11.39 69.67-31.9 35.3-20.59 54.86-32.55 65.85-32.45 10.99.11 55.2 19.17 76.35 23.23 18.68 3.58 53.78 14.4 70.79 16.5 17.01 2.09 173.46 23.09 173.46 23.09l-35.15 123.63-478.33-3.48z" fill="#ecd9ad" stroke="url(#g)"/>
		<path d="m-3.07 112.18c-17.01-2.1-52.11-12.91-70.79-16.5-21.15-4.05-67.23-23.81-76.35-23.23-6.14.39-8.33 1.56-11.99 3.09-4.77 2-7.62 9.63-8.46 13s.69 11.54-.03 13.25c-.73 1.71-5.33 5.85-2.47 9.27s15.23 2 25.09-2.18c0 0 18.44-5.59 25.71-5.77s4.71 2.08-6.15 10.63c-10.85 8.55-16.91 16.16-13.72 21.01s13.28 13.04 11.63 16.01l125.74.28z" fill="url(#d)"/>
		<path d="m377.61 61.37s-8.59 2.46-9.24 14.95c-.66 12.49 4 27.02-6.91 38.32-10.91 11.29-9 6.93-10.26 15.37s-6.55 10.74-16.08 12.64-3.92 9.7 2.81 12.08" fill="none" stroke="#e2c785"/>
		<path d="m-152.83 148s80-12.3 114.62-26.79c17.31-7.24 54.57-17.01 85.96-31.38s57.53-32.36 67.67-32.26c20.29.19 41.75 3.67 50.04 8.62s13.8 12.22 65.04 25.14 166.28 27.2 211.57 28.08c45.3.88 90.57 103.54 90.57 103.54l-787.08 5.74s-86.3-61.28-63.86-60.82c22.45.46 117.67-7.29 165.47-19.87z" fill="#ecd9ad" stroke="url(#f)"/>
		<path d="m230.5 91.32c-51.24-12.91-56.75-20.19-65.04-25.14s-29.49-8.72-49.78-8.6c-1.05.01-2.21.07-3.27.36-1.83.49-6.91 1.79-2.68 6.12 4.23 4.32 33.35 12.27 33.66 20.06s-31.5 27.96-38 31.67-51.12 23.1-62.26 25.83l187.39-2.88z" fill="url(#e)"/>
		<path d="m31.99 194.4s161.45-52.06 227.47-83.44 109.1-50.36 125.64-50.75c14.06-.33 16.45 3.04 29.8 5.63 14.82 2.88 29.06 1.81 46.04 14.98 28.34 21.97 103.83 45.14 156.14 63.87 49.23 17.63 110.75 33.23 110.75 33.23l-28.39 79.98-644.1-11.24z" fill="#ecd9ad" stroke="url(#a)"/>
		<path d="m337.93 154.72c-6.73-2.38-12.34-10.18-2.81-12.08s14.82-4.21 16.08-12.64c1.26-8.44-.65-4.07 10.26-15.37 10.91-11.29 6.25-25.83 6.91-38.32s3.83-12.72 9.24-14.95c2.36-.97 7.48-1.15 7.48-1.15 14.06-.33 16.45 3.04 29.8 5.63 14.82 2.88 29.06 1.81 46.04 14.98 28.34 21.97 103.83 45.14 156.14 63.87 49.23 17.63 110.75 33.23 110.75 33.23l-28.39 79.98z" fill="url(#b)"/>
		<path d="m491.83 163.95s64.88-23.71 84.17-27.14c14.18-2.52 34.52-11.39 69.67-31.9 35.3-20.59 54.86-32.55 65.85-32.45 10.99.11 55.2 19.17 76.35 23.23 18.68 3.58 53.78 14.4 70.79 16.5s173.45 23.1 173.45 23.1l-35.15 123.63-478.33-3.48z" fill="#ecd9ad" stroke="url(#h)"/>
		<path d="m858.66 112.18c-17-2.09-52.1-12.91-70.78-16.49-21.15-4.06-67.24-23.81-76.35-23.23-6.14.39-8.33 1.56-11.99 3.09-4.77 2-7.62 9.63-8.46 13s.69 11.54-.03 13.25c-.73 1.71-5.33 5.85-2.47 9.27s15.23 2 25.09-2.18c0 0 18.44-5.59 25.71-5.77s4.71 2.08-6.15 10.63c-10.85 8.55-16.91 16.16-13.72 21.01s13.28 13.04 11.63 16.01l125.74.28z" fill="url(#i)"/>
	</g>
</svg>
